<?xml version="1.0" encoding="utf-8"?>
<!-- Generator: Adobe Illustrator 27.8.0, SVG Export Plug-In . SVG Version: 6.00 Build 0)  -->
<svg version="1.1" id="SvgjsSvg4046" xmlns:svgjs="http://svgjs.dev/svgjs"
	 xmlns="http://www.w3.org/2000/svg" xmlns:xlink="http://www.w3.org/1999/xlink" x="0px" y="0px" viewBox="0 0 380.6 380.6"
	 style="enable-background:new 0 0 380.6 380.6;" xml:space="preserve">
<style type="text/css">
	.st0{fill:url(#SVGID_1_);}
	.st1{fill:url(#SVGID_00000097502399612633520580000017829857914974583997_);}
	.st2{fill:url(#SVGID_00000166654690501357304540000018070846017255134109_);}
	.st3{fill:url(#SVGID_00000168830492039558755740000013301002673975066550_);}
	.st4{fill:url(#SVGID_00000126305553768557832100000000230685013071287936_);}
	.st5{fill:url(#SVGID_00000164475082221775906950000004300113185083404459_);}
	.st6{fill:url(#SVGID_00000079457133196453526340000009769934082329956024_);}
	.st7{fill:url(#SVGID_00000063600547837931615260000008730648292652949924_);}
	.st8{fill:url(#SVGID_00000082326966381685978430000010595613949559973782_);}
	.st9{fill:url(#SVGID_00000129912239345769052950000013783371278397014671_);}
	.st10{fill:url(#SVGID_00000054258825868224767740000014383150127616412050_);}
	.st11{fill:url(#SVGID_00000113318142831715570390000001729977206313696433_);}
	.st12{fill:url(#SVGID_00000019636715768874113960000012114653888673752469_);}
	.st13{fill:url(#SVGID_00000068650139192768115310000006437385344681046192_);}
	.st14{fill:url(#SVGID_00000062163294161272092320000013107354549876037533_);}
	.st15{fill:url(#SVGID_00000089531856251295985580000014481742103359597988_);}
	.st16{fill:url(#SVGID_00000158022084951315253670000008722298293558848145_);}
	.st17{fill:url(#SVGID_00000120543385715124499150000016769023495894523326_);}
	.st18{fill:url(#SVGID_00000114767041631011812700000005927064147420967343_);}
	.st19{fill:url(#SVGID_00000106105362804426076380000004042339346237634206_);}
	.st20{fill:url(#SVGID_00000063602863986887709920000000101126441210981524_);}
	.st21{display:none;}
	.st22{fill:#FFFFFF;}
	.st23{fill:url(#SVGID_00000124869888104290348120000006551509256006473402_);}
	.st24{display:none;fill:none;}
</style>
<g transform="matrix(1,0,0,1,-0.7499999999998863,-0.7499999999998863)">
	<g id="tight-bounds" transform="matrix(1,0,0,1,0.13999999999998636,0.13999999999998636)">
		<g>
			<g>
				<g id="textblocktransform">
					<g>
						<g transform="matrix(1,0,0,1,57.446704652707865,57.446704652707865)">
							<g id="icon-0">
								<path d="M189,93.4c-0.8-3.6-2.1-7.1-3.9-10.5c5.2,1.9,9.4,5.7,12,10.5H189z M168.7,82.9c-5.2,1.9-9.6,5.7-12.3,10.5h8.1
									C165.5,89.7,166.9,86.1,168.7,82.9 M175.1,81.4c-2.4,3.7-4.4,7.8-5.5,12h14.6c-1.1-4.2-2.9-8.3-5.4-12
									c-0.6,0-1.3-0.2-2.1-0.2C176.2,81.4,175.7,81.4,175.1,81.4 M76.6,159.1v9.4h100.2v-24.3c4.2,0,8.4-0.6,12.5-1.9v25.6
									c0,1.6,0.5,3.2,1.6,4.4l6.3,7.8c0.5,0.6,0.8,1.3,0.8,2.1v3.6c0,4.7-3.7,8.4-8.4,8.4H63.8c-4.7,0-8.4-3.7-8.4-8.4v-3.6
									c0-0.8,0.3-1.5,0.8-2.1l6.5-7.9c1-1.3,1.6-2.8,1.6-4.4v-63.1c0-6.8,5.5-12.5,12.5-12.5h62.4c-1.3,4.1-1.9,8.3-1.9,12.5H76.6
									V159.1z M113.3,182c0,2.4,1.9,4.4,4.4,4.4H136c2.4,0,4.4-1.9,4.4-4.4v-1h-27.1C113.3,181,113.3,182,113.3,182z M163.2,104.9
									c0-2.3,0.2-4.5,0.5-6.8h-9.2c-0.6,2.1-1,4.2-1,6.5s0.3,4.4,1,6.3h9.1C163.4,109,163.2,106.9,163.2,104.9 M156.4,115.8
									c2.6,4.7,6.8,8.4,11.8,10.5c-1.8-3.4-2.9-6.8-3.9-10.5H156.4z M167.9,104.9c0,2.1,0.2,4.1,0.5,6.2h16.7
									c0.3-2.3,0.5-4.4,0.5-6.6c0-2.1-0.2-4.1-0.5-6.2h-16.5C168.1,100.4,167.9,102.6,167.9,104.9 M200.4,81.1
									c13,13,13,34.1,0,46.9c-10.9,10.9-27.6,12.6-40.2,5.2c-5,3.7-10.4,4.4-14.1,3.9c-1.3-0.2-1.5-1.9-0.3-2.4
									c3.4-1.6,5.5-5,6.8-7.8l-0.3-0.3c-11.5-13-11-32.9,1.5-45.4C166.3,68.1,187.4,68.1,200.4,81.1 M196.6,84.8
									c-5.4-5.4-12.3-8.3-19.8-8.3s-14.4,2.9-19.8,8.3c-5.2,5.4-8.1,12.3-8.1,19.8s2.9,14.4,8.3,19.8c5.4,5.4,12.3,8.3,19.8,8.3
									s14.4-2.9,19.8-8.3s8.3-12.3,8.3-19.8C204.9,97.1,202,90.2,196.6,84.8 M174.7,127.8c0.6,0,1.5,0.2,2.1,0.2h1.6
									c2.4-3.7,4.4-7.8,5.5-12h-14.8C170.5,120,172.3,124.1,174.7,127.8 M190.3,104.3c0,2.3-0.2,4.5-0.5,6.6h9.4
									c0.6-2.1,1-4.2,1-6.3c0-2.3-0.3-4.4-1-6.5H190C190.1,100.2,190.3,102.2,190.3,104.3 M184.8,126.5c5.4-1.9,9.7-5.8,12.5-10.7
									H189C188,119.5,186.6,123.1,184.8,126.5"/>
							</g>
						</g>
						<g id="text-0">
						</g>
						<g id="text-1">
						</g>
					</g>
				</g>
			</g>
		</g>
		<g id="SvgjsG4028">
			<g>
				<g>
					<g id="SvgjsG4027">
						<g>
							<g transform="matrix(1,0,0,1,57.446704652707865,57.446704652707865)">
								<g id="SvgjsG4025">
									<circle cx="132.7" cy="132.7" r="110"/>
									<path d="M189,93.4c-0.8-3.6-2.1-7.1-3.9-10.5c5.2,1.9,9.4,5.7,12,10.5H189z M168.7,82.9c-5.2,1.9-9.6,5.7-12.3,10.5h8.1
										C165.5,89.7,166.9,86.1,168.7,82.9 M175.1,81.4c-2.4,3.7-4.4,7.8-5.5,12h14.6c-1.1-4.2-2.9-8.3-5.4-12
										c-0.6,0-1.3-0.2-2.1-0.2C176.2,81.4,175.7,81.4,175.1,81.4 M76.6,159.1v9.4h100.2v-24.3c4.2,0,8.4-0.6,12.5-1.9v25.6
										c0,1.6,0.5,3.2,1.6,4.4l6.3,7.8c0.5,0.6,0.8,1.3,0.8,2.1v3.6c0,4.7-3.7,8.4-8.4,8.4H63.8c-4.7,0-8.4-3.7-8.4-8.4v-3.6
										c0-0.8,0.3-1.5,0.8-2.1l6.5-7.9c1-1.3,1.6-2.8,1.6-4.4v-63.1c0-6.8,5.5-12.5,12.5-12.5h62.4c-1.3,4.1-1.9,8.3-1.9,12.5
										H76.6V159.1z M113.3,182c0,2.4,1.9,4.4,4.4,4.4H136c2.4,0,4.4-1.9,4.4-4.4v-1h-27.1C113.3,181,113.3,182,113.3,182z
										 M163.2,104.9c0-2.3,0.2-4.5,0.5-6.8h-9.2c-0.6,2.1-1,4.2-1,6.5s0.3,4.4,1,6.3h9.1C163.4,109,163.2,106.9,163.2,104.9
										 M156.4,115.8c2.6,4.7,6.8,8.4,11.8,10.5c-1.8-3.4-2.9-6.8-3.9-10.5H156.4z M167.9,104.9c0,2.1,0.2,4.1,0.5,6.2h16.7
										c0.3-2.3,0.5-4.4,0.5-6.6c0-2.1-0.2-4.1-0.5-6.2h-16.5C168.1,100.4,167.9,102.6,167.9,104.9 M200.4,81.1
										c13,13,13,34.1,0,46.9c-10.9,10.9-27.6,12.6-40.2,5.2c-5,3.7-10.4,4.4-14.1,3.9c-1.3-0.2-1.5-1.9-0.3-2.4
										c3.4-1.6,5.5-5,6.8-7.8l-0.3-0.3c-11.5-13-11-32.9,1.5-45.4C166.3,68.1,187.4,68.1,200.4,81.1 M196.6,84.8
										c-5.4-5.4-12.3-8.3-19.8-8.3s-14.4,2.9-19.8,8.3c-5.2,5.4-8.1,12.3-8.1,19.8s2.9,14.4,8.3,19.8c5.4,5.4,12.3,8.3,19.8,8.3
										s14.4-2.9,19.8-8.3s8.3-12.3,8.3-19.8C204.9,97.1,202,90.2,196.6,84.8 M174.7,127.8c0.6,0,1.5,0.2,2.1,0.2h1.6
										c2.4-3.7,4.4-7.8,5.5-12h-14.8C170.5,120,172.3,124.1,174.7,127.8 M190.3,104.3c0,2.3-0.2,4.5-0.5,6.6h9.4
										c0.6-2.1,1-4.2,1-6.3c0-2.3-0.3-4.4-1-6.5H190C190.1,100.2,190.3,102.2,190.3,104.3 M184.8,126.5
										c5.4-1.9,9.7-5.8,12.5-10.7H189C188,119.5,186.6,123.1,184.8,126.5"/>
								</g>
							</g>
							<g id="SvgjsG4023">
								<linearGradient id="SVGID_1_" gradientUnits="userSpaceOnUse" x1="8.8" y1="135.3469" x2="51.8" y2="135.3469">
									<stop  offset="0" style="stop-color:#FFF72E"/>
									<stop  offset="1" style="stop-color:#DEAE29"/>
								</linearGradient>
								<path class="st0" d="M31.2,135L31.2,135l0.4,0.2l19.7-8l0.5,0.2l-0.5,5.5c-1.9,0.6-4,1.3-6.1,2S41,136.3,39,137
									c-2,0.6-3.7,1.2-5.1,1.8c-1.4,0.5-2.4,0.9-2.9,1.1l0,0c-0.4,0.2-0.7,0.5-0.8,0.9l0,0c2.4,0.9,4.9,1.7,7.3,2.6
									c2.5,0.9,4.9,1.6,7.4,2.4l0,0v4.7l-0.7,0.4c-3.6-1.5-7.3-3-10.9-4.3c-3.7-1.4-7.3-2.7-11-4l0,0c-0.2-0.1-0.6-0.2-1.3-0.4
									c-0.6-0.2-1.4-0.5-2.3-0.8s-1.8-0.6-2.7-0.9c-0.9-0.3-1.8-0.6-2.5-0.8l0,0c-0.5-0.2-1.1,0-1.6,0.4c-0.5,0.5-1,1-1.4,1.6
									s-0.6,1-0.7,1.1l0,0L9,142.3l-0.2-0.4l4.9-13.8c1.1-3.1,2.6-5.4,4.4-6.9s4-1.8,6.3-0.9l0,0c2.3,0.8,4.1,2,5.2,3.5
									s1.8,3.2,1.9,5.1C31.8,130.9,31.7,132.9,31.2,135L31.2,135z M27.3,139.8L27.3,139.8c0.1,0,0.3,0.1,0.5,0.1s0.3-0.1,0.4-0.3
									l0,0c0.7-1.9,1-3.7,1-5.6c0-1.9-0.4-3.6-1.3-5.1s-2.3-2.6-4.3-3.3l0,0c-1.6-0.6-3-0.6-4.2,0s-2.1,1.4-2.9,2.6
									c-0.8,1.2-1.4,2.5-1.9,3.8l0,0l-0.7,2c-0.1,0.4,0.2,0.7,1.1,1.1l0,0c0.6,0.3,1.5,0.6,2.5,1s2.1,0.8,3.2,1.2s2.2,0.8,3.2,1.2
									s1.8,0.7,2.4,0.9C26.8,139.6,27.2,139.8,27.3,139.8L27.3,139.8z"/>
								
									<linearGradient id="SVGID_00000074404114829229371970000006401593545224959132_" gradientUnits="userSpaceOnUse" x1="49.9812" y1="76.7125" x2="81.7392" y2="76.7125">
									<stop  offset="0" style="stop-color:#FFF72E"/>
									<stop  offset="1" style="stop-color:#DEAE29"/>
								</linearGradient>
								<path style="fill:url(#SVGID_00000074404114829229371970000006401593545224959132_);" d="M55.3,64.7L55.3,64.7
									c0.6,0.6,1,1.4,0.9,2.2c0,0.8-0.3,1.6-0.9,2.2l0,0c-0.6,0.6-1.3,1-2.2,1s-1.6-0.2-2.2-0.8l0,0c-0.7-0.6-1-1.4-0.9-2.3
									s0.4-1.7,1-2.3l0,0c0.6-0.7,1.3-1,2.1-1C54,63.9,54.7,64.2,55.3,64.7L55.3,64.7z M64.1,73.8L64.1,73.8l8.1,7.9
									c1.5,1.3,2.7,2.2,3.8,2.7c1,0.5,1.9,0.4,2.5-0.3l0,0c0.7-0.8,1.1-1.6,1.3-2.5c0.2-0.9,0.2-1.8,0.2-2.8l0,0l0.9-0.2l0.4,0.4
									c0.2,1,0.3,2,0.4,3.2c0.1,1.1,0,2.2-0.2,3.3c-0.2,1-0.7,1.9-1.3,2.7l0,0c-0.5,0.6-1.1,1-1.7,1.3s-1.4,0.3-2.3,0
									s-2-1-3.3-2.2l0,0l-8.6-8.2c-1-0.9-1.9-1.6-2.7-1.9c-0.8-0.4-1.4-0.3-1.9,0.3l0,0c-0.4,0.4-0.7,1.1-1,1.9
									c-0.3,0.9-0.5,1.7-0.6,2.4l0,0l-1.2-0.1c0.1-1.5,0.3-3.1,0.6-4.7s0.8-2.8,1.5-3.6l0,0c0.8-0.9,1.7-1.3,2.7-1.1
									C62.3,72.5,63.2,73,64.1,73.8L64.1,73.8z"/>
								
									<linearGradient id="SVGID_00000137814099580363006940000012137043855946575765_" gradientUnits="userSpaceOnUse" x1="107.9842" y1="44.3042" x2="128.6141" y2="44.3042">
									<stop  offset="0" style="stop-color:#FFF72E"/>
									<stop  offset="1" style="stop-color:#DEAE29"/>
								</linearGradient>
								<path style="fill:url(#SVGID_00000137814099580363006940000012137043855946575765_);" d="M121.1,32.8L121.1,32.8l-1.7,3.1
									h-0.7c-0.6-1-1.3-1.8-2.2-2.2c-0.8-0.5-1.8-0.4-2.9,0.1l0,0c-1.1,0.6-1.9,1.4-2.2,2.5c-0.4,1.1-0.3,2.2,0.3,3.4l0,0
									c0.5,1,1.4,1.6,2.6,1.8s2.9,0.3,5.1,0.1l0,0c2.3-0.2,4.1,0,5.4,0.4c1.4,0.4,2.4,1.2,2.9,2.3l0,0c0.8,1.6,1.1,3.2,0.8,4.8
									s-1,3-2.1,4.3s-2.3,2.3-3.8,3l0,0c-1.4,0.7-2.9,1.2-4.4,1.2c-1.5,0.1-3.1-0.4-4.7-1.5l0,0l0.6-4.6l0.7-0.3
									c0.9,1.4,2.1,2.4,3.7,3s3.1,0.5,4.6-0.3l0,0c1-0.5,1.8-1.4,2.2-2.5c0.5-1.2,0.4-2.2-0.1-3.2l0,0c-0.4-0.8-1-1.4-1.8-1.7
									s-1.6-0.5-2.6-0.5c-0.9,0-1.9,0-2.8,0.1l0,0c-1.2,0.1-2.4,0.1-3.6,0.1c-1.2-0.1-2.3-0.3-3.3-0.8s-1.7-1.2-2.3-2.3l0,0
									c-0.7-1.4-1-2.9-0.7-4.3c0.3-1.4,0.9-2.8,1.9-4s2.1-2.1,3.4-2.8l0,0c0.8-0.4,1.7-0.7,2.7-0.9c0.9-0.2,1.8-0.1,2.7,0.2
									C119.9,31.2,120.6,31.8,121.1,32.8L121.1,32.8z"/>
								
									<linearGradient id="SVGID_00000176762147003319172080000009165559462277591978_" gradientUnits="userSpaceOnUse" x1="165" y1="21.35" x2="200" y2="21.35">
									<stop  offset="0" style="stop-color:#FFF72E"/>
									<stop  offset="1" style="stop-color:#DEAE29"/>
								</linearGradient>
								<path style="fill:url(#SVGID_00000176762147003319172080000009165559462277591978_);" d="M194.6,34.7L194.6,34.7
									c1-0.1,2-0.4,2.8-1s1.5-1.2,1.9-1.7l0,0l0.7,0.5v0.6c-1.1,1.3-2.3,2.6-3.7,3.8c-1.3,1.2-2.8,1.8-4.4,1.9l0,0
									c-1.2,0.1-2.2-0.4-2.8-1.5s-1-2.3-1.1-3.6l0,0c-0.1-1-0.1-2.1-0.2-3.3c0-1.2-0.1-2.4-0.1-3.5s-0.1-2-0.1-2.7l0,0
									c-0.1-1.4-0.3-2.6-0.6-3.7s-0.8-2-1.5-2.6s-1.7-0.9-3-0.8l0,0c-1.5,0.1-2.8,0.5-4.1,1.3c-1.2,0.8-2.4,1.6-3.4,2.4l0,0
									c0.2,2.9,0.4,5.9,0.5,8.9c0.2,3,0.3,5.9,0.5,8.8l0,0l-3.8,1.4l-0.4-0.5c0-3.6-0.1-7.1-0.2-10.7c-0.1-3.6-0.2-7.1-0.4-10.7
									l0,0c-0.2-2.7-0.3-5.1-0.4-7.1c-0.1-2-0.6-3.5-1.4-4.4l0,0c-0.3-0.3-0.9-0.5-1.8-0.7c-0.9-0.2-1.7-0.3-2.5-0.4l0,0l-0.1-1
									l0.3-0.2l8.4-1.4l0.3,0.4c0,2.3,0.1,4.7,0.3,7.3c0.1,2.6,0.3,5.1,0.4,7.5l0,0l0.5,0.4c1.5-1.1,3.2-2.1,4.9-3.1
									c1.8-1,3.6-1.6,5.6-1.7l0,0c0.4,0,1,0.1,1.7,0.3s1.4,0.5,1.9,1l0,0c0.9,0.7,1.4,1.9,1.5,3.7c0.1,1.7,0.3,3.7,0.4,5.8l0,0
									l0.2,4c0,0.5,0.1,1.2,0.1,1.9c0,0.8,0.1,1.5,0.3,2.2c0.2,0.7,0.4,1.3,0.8,1.8C193.3,34.6,193.8,34.8,194.6,34.7L194.6,34.7z
									"/>
								
									<linearGradient id="SVGID_00000114041739487887190150000004587700411458697881_" gradientUnits="userSpaceOnUse" x1="240.65" y1="38.3118" x2="267.3" y2="38.3118">
									<stop  offset="0" style="stop-color:#FFF72E"/>
									<stop  offset="1" style="stop-color:#DEAE29"/>
								</linearGradient>
								<path style="fill:url(#SVGID_00000114041739487887190150000004587700411458697881_);" d="M259.1,25.2L259.1,25.2
									c0.8,0.3,1.7,0.8,2.5,1.5c0.9,0.7,1.6,1.5,2.2,2.3l0,0l3.3-0.6l0.2,0.3c-1.6,3.6-3.1,7.2-4.5,10.9l0,0
									c-0.3,0.8-0.7,1.7-1.1,2.8c-0.5,1-0.8,2.1-1.2,3.1c-0.3,1-0.4,1.9-0.4,2.7c0.1,0.8,0.4,1.3,1.1,1.6l0,0
									c0.4,0.1,0.9,0.2,1.6,0.3c0.7,0,1.4,0.1,2,0.1l0,0l-0.1,1.3c-0.8,0.1-1.7,0.3-2.6,0.5s-1.8,0.3-2.7,0.3
									c-0.9,0-1.6,0-2.1-0.2l0,0c-0.9-0.4-1.5-0.9-1.7-1.6c-0.2-0.7-0.2-1.5-0.1-2.4l0,0l-0.7-0.5c-1.5,0.3-3.1,0.6-4.8,0.7
									c-1.6,0.1-3.2-0.1-4.6-0.6l0,0c-1.4-0.5-2.5-1.3-3.2-2.2c-0.7-1-1.2-2-1.4-3.2s-0.2-2.4,0-3.7s0.5-2.5,0.9-3.6l0,0
									c0.7-1.8,1.6-3.4,2.6-4.9c1.1-1.5,2.4-2.8,3.8-3.8c1.5-1,3.1-1.6,4.9-1.8C254.9,24.1,256.9,24.4,259.1,25.2L259.1,25.2z
									 M250.2,45.5L250.2,45.5c1,0.4,2,0.5,3.1,0.4s2.1-0.3,3.1-0.6l0,0l4.4-11.6c0.3-0.7,0.5-1.3,0.6-2s0.1-1.2-0.1-1.8l0,0
									c-0.3-0.6-0.6-1.2-1.1-1.8c-0.5-0.5-1-0.9-1.7-1.2l0,0c-1.8-0.7-3.7-0.7-5.5,0.1l0,0c-0.8,0.3-1.7,1.1-2.9,2.3
									c-1.1,1.2-2.2,3.1-3.3,5.6l0,0c-0.4,1-0.7,2.1-0.9,3.2c-0.2,1.1-0.2,2.2,0.1,3.3l0,0c0.2,1,0.7,1.9,1.6,2.5
									C248.3,44.7,249.2,45.2,250.2,45.5L250.2,45.5z"/>
								
									<linearGradient id="SVGID_00000120540484717291818820000001592672960039415712_" gradientUnits="userSpaceOnUse" x1="299.5" y1="67.55" x2="327.5937" y2="67.55">
									<stop  offset="0" style="stop-color:#FFF72E"/>
									<stop  offset="1" style="stop-color:#DEAE29"/>
								</linearGradient>
								<path style="fill:url(#SVGID_00000120540484717291818820000001592672960039415712_);" d="M318.4,49.4L318.4,49.4l0.8-0.8
									h0.4l7.1,5.8v0.5c-1.7,1.4-3.4,2.8-5,4.3c-1.7,1.5-3.3,3-4.8,4.5l0,0l-1.3,1.2l0.1,0.5c1.8,0.3,3.5,0.7,5.2,1.2
									c1.7,0.6,3.2,1.5,4.5,2.8l0,0c1.2,1.2,1.9,2.5,2.1,3.8c0.2,1.4,0.1,2.7-0.5,4c-0.5,1.3-1.3,2.5-2.4,3.6l0,0
									c-0.8,0.8-1.7,1.6-2.7,2.4c-0.9,0.7-2,1.4-3.1,1.9l0,0c-1.8,0.9-3.7,1.4-5.9,1.4c-2.1,0-4.2-0.3-6.2-1.1
									c-2-0.8-3.7-1.9-5.2-3.3l0,0c-0.6-0.6-1.2-1.4-1.6-2.4s-0.5-2-0.3-3.2c0.3-1.2,1.1-2.5,2.5-3.9l0,0l18.1-18.1
									c0.5-0.5,0.7-0.8,0.7-1.1s-0.2-0.7-0.6-1.3C320,51.5,319.3,50.6,318.4,49.4L318.4,49.4z M313.7,67L313.7,67
									c-0.7,0.6-1.4,1.3-2.3,2.1c-0.9,0.8-1.6,1.5-2.4,2.3l0,0c-1.4,1.4-2.6,2.8-3.5,4c-0.9,1.3-1.4,2.5-1.5,3.6s0.4,2.3,1.6,3.4
									l0,0c1.3,1.3,2.8,2.1,4.3,2.2s3-0.2,4.5-0.9c1.5-0.7,2.8-1.7,4-2.8l0,0c1.4-1.4,2.4-2.6,3-3.7s0.9-1.9,1.1-2.6l0,0
									c0.1-0.6,0.1-1.4,0-2.2c-0.1-0.8-0.5-1.6-1.2-2.3l0,0c-1-1-2.2-1.7-3.5-2.2C316.5,67.4,315.1,67.1,313.7,67L313.7,67z"/>
								
									<linearGradient id="SVGID_00000062882677379086786760000015000878133829630908_" gradientUnits="userSpaceOnUse" x1="335.3" y1="133.3" x2="371.5" y2="133.3">
									<stop  offset="0" style="stop-color:#FFF72E"/>
									<stop  offset="1" style="stop-color:#DEAE29"/>
								</linearGradient>
								<path style="fill:url(#SVGID_00000062882677379086786760000015000878133829630908_);" d="M346.5,149.2L346.5,149.2
									c0.4,1,0.9,1.8,1.8,2.4c0.8,0.6,1.6,1.1,2.2,1.4l0,0l-0.3,0.8l-0.6,0.2c-1.6-0.7-3.1-1.5-4.7-2.5c-1.5-1-2.5-2.2-3.1-3.7
									l0,0c-0.4-1.2-0.2-2.2,0.6-3.1c0.9-0.9,1.9-1.6,3.2-2l0,0c0.9-0.3,1.9-0.7,3.1-1.1c1.2-0.4,2.3-0.8,3.4-1.1
									c1.1-0.4,1.9-0.6,2.5-0.9l0,0c1.3-0.5,2.4-1,3.4-1.6s1.7-1.3,2.1-2.2s0.4-1.9-0.1-3.2l0,0c-0.5-1.4-1.3-2.6-2.4-3.5
									c-1.1-1-2.2-1.8-3.2-2.5l0,0c-2.8,1-5.6,2-8.4,3s-5.6,2-8.3,3l0,0l-2.4-3.2l0.4-0.5c3.4-1,6.8-2.1,10.2-3.2
									c3.4-1.1,6.8-2.2,10.1-3.4l0,0c2.6-0.9,4.8-1.7,6.7-2.4c1.9-0.7,3.2-1.5,3.9-2.6l0,0c0.2-0.3,0.3-1,0.2-1.9
									c-0.1-0.9-0.2-1.8-0.3-2.5l0,0l0.9-0.3l0.3,0.2l3.8,7.7l-0.2,0.4c-2.2,0.7-4.5,1.5-6.9,2.3c-2.4,0.9-4.8,1.7-7.1,2.6l0,0
									l-0.3,0.6c1.5,1.2,2.9,2.4,4.4,3.9c1.5,1.4,2.5,3.1,3.2,4.9l0,0c0.1,0.4,0.2,0.9,0.2,1.7s-0.1,1.5-0.4,2.1l0,0
									c-0.4,1-1.4,1.9-3.1,2.5c-1.6,0.6-3.5,1.3-5.5,2l0,0l-3.7,1.4c-0.5,0.2-1.1,0.4-1.8,0.6c-0.7,0.2-1.4,0.5-2,0.9
									c-0.6,0.3-1.1,0.8-1.5,1.2C346.3,148,346.3,148.6,346.5,149.2L346.5,149.2z"/>
								
									<linearGradient id="SVGID_00000101806093648193559190000006103398762449326765_" gradientUnits="userSpaceOnUse" x1="21.2" y1="194.5" x2="29.6" y2="194.5">
									<stop  offset="0" style="stop-color:#FFF72E"/>
									<stop  offset="1" style="stop-color:#DEAE29"/>
								</linearGradient>
								<path style="fill:url(#SVGID_00000101806093648193559190000006103398762449326765_);" d="M21.2,194.5c0-2.3,1.9-4.2,4.2-4.2
									s4.2,1.9,4.2,4.2s-1.9,4.2-4.2,4.2S21.2,196.8,21.2,194.5z"/>
								
									<linearGradient id="SVGID_00000029025607167477017710000016289969492581426596_" gradientUnits="userSpaceOnUse" x1="358.5" y1="194.5" x2="366.9" y2="194.5">
									<stop  offset="0" style="stop-color:#FFF72E"/>
									<stop  offset="1" style="stop-color:#DEAE29"/>
								</linearGradient>
								<path style="fill:url(#SVGID_00000029025607167477017710000016289969492581426596_);" d="M358.5,194.5
									c0-2.3,1.9-4.2,4.2-4.2c2.3,0,4.2,1.9,4.2,4.2s-1.9,4.2-4.2,4.2S358.5,196.8,358.5,194.5z"/>
							</g>
							<g id="SvgjsG4022">
								
									<linearGradient id="SVGID_00000061445448246861526260000011834568734629928833_" gradientUnits="userSpaceOnUse" x1="71.8" y1="320.45" x2="125.4" y2="320.45">
									<stop  offset="0" style="stop-color:#FFF72E"/>
									<stop  offset="1" style="stop-color:#DEAE29"/>
								</linearGradient>
								<path style="fill:url(#SVGID_00000061445448246861526260000011834568734629928833_);" d="M95.9,318.9L95.9,318.9l-19.4,14.4
									l-4.7-3.7l14.1-35.7l4.1,3.2l-9.2,22.5c-0.6,1.4-1.2,2.8-1.8,4.2c-0.6,1.4-1.3,2.8-2,4.2l0,0c0.5-0.4,1.2-1,2-1.7
									s1.7-1.4,2.6-2.1s1.6-1.3,2.3-1.7l0,0l20-14.7l3.8,2.9l-9.1,22c-0.8,1.8-1.5,3.4-2.2,4.9s-1.3,2.8-1.9,4l0,0
									c0.8-0.7,1.7-1.4,2.7-2.1c1-0.8,1.8-1.4,2.6-2.1c0.8-0.6,1.4-1.1,1.7-1.3l0,0l19.8-14.7l4.1,3.2L94.2,347l-4.7-3.7l9.4-22.4
									c0.3-0.7,0.7-1.7,1.3-2.9c0.6-1.2,1.3-2.7,2.1-4.4l0,0c-0.7,0.6-1.5,1.3-2.3,2c-0.9,0.7-1.7,1.3-2.4,1.9
									C96.8,318.1,96.2,318.6,95.9,318.9L95.9,318.9z"/>
								
									<linearGradient id="SVGID_00000163753394955053358220000002957632257452899502_" gradientUnits="userSpaceOnUse" x1="110.695" y1="348.5266" x2="137.7219" y2="348.5266">
									<stop  offset="0" style="stop-color:#FFF72E"/>
									<stop  offset="1" style="stop-color:#DEAE29"/>
								</linearGradient>
								<path style="fill:url(#SVGID_00000163753394955053358220000002957632257452899502_);" d="M135,354.7l-18.2-8.7
									c-1.4,2.9-1.9,5.5-1.4,7.6c0.5,2.2,1.8,3.8,4.2,4.9l0,0c1.8,0.9,3.5,1.2,5,1s2.7-0.8,3.6-1.7l0,0l3.2,2.8
									c-3.4,3.3-7.9,3.7-13.3,1.1l0,0c-3.8-1.8-6.1-4.3-7-7.5s-0.3-7,1.8-11.4l0,0c2-4.2,4.5-7,7.6-8.3c3-1.3,6.4-1.1,10.1,0.6
									l0,0c3.8,1.8,6,4.3,6.8,7.4c0.8,3.2,0.1,7-2,11.5l0,0L135,354.7z M118.3,342.8l13.8,6.5c1-2.8,1.3-5.1,0.7-6.9
									c-0.5-1.8-1.9-3.2-4-4.2l0,0c-2.1-1-4-1.1-5.9-0.3C121.1,338.9,119.6,340.5,118.3,342.8z"/>
								
									<linearGradient id="SVGID_00000018219336279127692900000017343100352166985624_" gradientUnits="userSpaceOnUse" x1="137.2" y1="352.7169" x2="165.3523" y2="352.7169">
									<stop  offset="0" style="stop-color:#FFF72E"/>
									<stop  offset="1" style="stop-color:#DEAE29"/>
								</linearGradient>
								<path style="fill:url(#SVGID_00000018219336279127692900000017343100352166985624_);" d="M164.2,361.7L164.2,361.7
									c-1.3,4.8-3.1,8.1-5.5,10c-2.3,1.9-5.2,2.4-8.5,1.5l0,0c-2.1-0.6-3.7-1.4-4.8-2.5c-1.2-1.1-1.9-2.6-2.3-4.5l0,0l0,0
									c-0.1,0.3-0.2,0.8-0.5,1.4c-0.2,0.6-0.4,1.2-0.6,1.8c-0.2,0.5-0.3,0.9-0.4,1l0,0l-4.4-1.2c0.2-0.4,0.4-1.1,0.7-2.1
									c0.3-0.9,0.6-2.1,1-3.5l0,0l8.8-31.8l4.5,1.3l-2.9,10.7c-0.1,0.5-0.3,1.1-0.5,1.8c-0.2,0.6-0.4,1.3-0.6,2l0,0h0.1
									c1.3-1.5,2.8-2.4,4.4-2.8c1.6-0.4,3.4-0.3,5.5,0.3l0,0c3.4,1,5.7,2.8,6.6,5.6C165.7,353.2,165.5,356.9,164.2,361.7
									L164.2,361.7z M159.4,360.5L159.4,360.5c1.1-3.8,1.3-6.7,0.8-8.6c-0.6-1.9-2-3.2-4.2-3.8l0,0c-2.5-0.7-4.6-0.3-6.3,1.1
									s-3,4-4.1,7.8l0,0c-1,3.6-1.1,6.4-0.5,8.4c0.7,2,2.3,3.4,4.9,4.1l0,0c2.3,0.6,4.2,0.2,5.7-1.2
									C157.1,366.9,158.4,364.3,159.4,360.5L159.4,360.5z"/>
								
									<linearGradient id="SVGID_00000015317328700867056120000000008349807577663619_" gradientUnits="userSpaceOnUse" x1="185.1" y1="359.1977" x2="217.2094" y2="359.1977">
									<stop  offset="0" style="stop-color:#FFF72E"/>
									<stop  offset="1" style="stop-color:#DEAE29"/>
								</linearGradient>
								<path style="fill:url(#SVGID_00000015317328700867056120000000008349807577663619_);" d="M217.2,358.4L217.2,358.4
									c0.1,3.9-0.6,7.2-2.1,10.1c-1.5,2.8-3.5,5-6.2,6.6s-5.8,2.4-9.3,2.4l0,0l-13.8,0.2l-0.7-36.8l12.2-0.2
									c6.2-0.1,11.1,1.4,14.5,4.4C215.4,348.2,217.1,352.6,217.2,358.4L217.2,358.4z M212.2,358.5L212.2,358.5
									c-0.1-4.6-1.4-8-3.9-10.4c-2.5-2.3-6.2-3.5-10.9-3.4l0,0l-7.1,0.1l0.5,28.8l8.2-0.1c2.7,0,5.1-0.7,7.1-1.9
									c2-1.2,3.5-3,4.6-5.2C211.8,364.1,212.3,361.5,212.2,358.5L212.2,358.5z"/>
								
									<linearGradient id="SVGID_00000007398350887591773710000005309749697598124434_" gradientUnits="userSpaceOnUse" x1="221.3456" y1="358.7017" x2="247.5" y2="358.7017">
									<stop  offset="0" style="stop-color:#FFF72E"/>
									<stop  offset="1" style="stop-color:#DEAE29"/>
								</linearGradient>
								<path style="fill:url(#SVGID_00000007398350887591773710000005309749697598124434_);" d="M246.7,357l-19.7,4.5
									c0.7,3.2,2,5.4,3.7,6.9c1.7,1.4,3.8,1.8,6.3,1.2l0,0c2-0.5,3.5-1.2,4.5-2.3c1-1.1,1.6-2.3,1.7-3.6l0,0l4.3,0.2
									c-0.6,4.7-3.9,7.8-9.7,9.1l0,0c-4.1,0.9-7.5,0.4-10.1-1.5c-2.7-1.9-4.6-5.3-5.7-10.1l0,0c-1.1-4.6-0.8-8.3,0.8-11.2
									c1.6-2.9,4.3-4.8,8.3-5.8l0,0c4.1-0.9,7.4-0.4,10,1.6s4.4,5.4,5.6,10.3l0,0L246.7,357z M226.3,358l14.9-3.4
									c-0.9-2.8-2.2-4.8-3.7-5.8c-1.5-1.1-3.4-1.3-5.7-0.8l0,0c-2.2,0.5-3.8,1.7-4.8,3.5C226,353.2,225.8,355.4,226.3,358
									L226.3,358z"/>
								
									<linearGradient id="SVGID_00000070117461638591760310000015242568076352309431_" gradientUnits="userSpaceOnUse" x1="243.2" y1="347.65" x2="269" y2="347.65">
									<stop  offset="0" style="stop-color:#FFF72E"/>
									<stop  offset="1" style="stop-color:#DEAE29"/>
								</linearGradient>
								<path style="fill:url(#SVGID_00000070117461638591760310000015242568076352309431_);" d="M262.9,333.5l4.6-2l1.5,30.1
									l-5.1,2.2L243.2,342l4.6-2l13,14.4c0.2,0.3,0.7,0.8,1.4,1.7c0.7,0.8,1.6,1.9,2.7,3.3l0,0c-0.1-0.7-0.1-1.5-0.2-2.2
									s-0.2-1.5-0.3-2.2c-0.1-0.7-0.1-1.4-0.2-2l0,0L262.9,333.5z"/>
								
									<linearGradient id="SVGID_00000126300588649763191240000008612748466995308443_" gradientUnits="userSpaceOnUse" x1="271.875" y1="336.4888" x2="300.2087" y2="336.4888">
									<stop  offset="0" style="stop-color:#FFF72E"/>
									<stop  offset="1" style="stop-color:#DEAE29"/>
								</linearGradient>
								<path style="fill:url(#SVGID_00000126300588649763191240000008612748466995308443_);" d="M296.9,330.7l-17.1,10.8
									c1.7,2.7,3.6,4.5,5.7,5.3s4.2,0.5,6.4-0.9l0,0c1.7-1.1,2.9-2.3,3.5-3.7c0.6-1.3,0.7-2.7,0.5-4l0,0l4.1-1.2
									c0.9,4.7-1.1,8.6-6.2,11.8l0,0c-3.5,2.2-6.9,2.9-10.1,1.9c-3.2-0.9-6.1-3.5-8.7-7.6l0,0c-2.5-4-3.5-7.6-3-10.8
									c0.5-3.3,2.5-6,5.9-8.2l0,0c3.5-2.2,6.8-2.8,9.9-1.8s6,3.6,8.6,7.9l0,0L296.9,330.7z M277.9,338.4l12.9-8.1
									c-1.8-2.4-3.6-3.8-5.4-4.3s-3.7-0.1-5.7,1.1l0,0c-1.9,1.2-3,2.8-3.4,4.8C276.1,333.9,276.6,336.1,277.9,338.4L277.9,338.4z"
									/>
								
									<linearGradient id="SVGID_00000012442743700141913430000010442094932325568923_" gradientUnits="userSpaceOnUse" x1="285.4" y1="320.4" x2="313.4" y2="320.4">
									<stop  offset="0" style="stop-color:#FFF72E"/>
									<stop  offset="1" style="stop-color:#DEAE29"/>
								</linearGradient>
								<path style="fill:url(#SVGID_00000012442743700141913430000010442094932325568923_);" d="M285.4,306.8l3.7-3l24.3,30.2
									l-3.7,3L285.4,306.8z"/>
								
									<linearGradient id="SVGID_00000155130858896268416950000002978466308725682111_" gradientUnits="userSpaceOnUse" x1="302.8578" y1="309.707" x2="331.9399" y2="309.707">
									<stop  offset="0" style="stop-color:#FFF72E"/>
									<stop  offset="1" style="stop-color:#DEAE29"/>
								</linearGradient>
								<path style="fill:url(#SVGID_00000155130858896268416950000002978466308725682111_);" d="M326.1,300.6L326.1,300.6
									c3.6,3.4,5.5,6.7,5.8,10c0.3,3.2-1.1,6.4-3.9,9.4l0,0c-2.8,3-5.9,4.4-9.2,4.2s-6.6-2-10.1-5.2l0,0c-3.5-3.4-5.5-6.7-5.8-9.9
									c-0.3-3.2,1-6.3,3.9-9.4l0,0c3-3.1,6-4.6,9.2-4.5C319.1,295.4,322.5,297.2,326.1,300.6L326.1,300.6z M322.7,304.2
									L322.7,304.2c-2.8-2.7-5.3-4.2-7.4-4.6s-4.1,0.4-5.9,2.4l0,0c-1.9,2-2.6,4.1-2.2,6.2c0.5,2.1,2.1,4.5,4.9,7.2l0,0
									c2.7,2.6,5.1,4.1,7.3,4.5c2.2,0.4,4.2-0.3,6-2.2l0,0c1.9-2,2.7-4.1,2.2-6.3C327.2,309.3,325.5,306.9,322.7,304.2
									L322.7,304.2z"/>
								
									<linearGradient id="SVGID_00000142145374988860170390000012161311017707901584_" gradientUnits="userSpaceOnUse" x1="317.5" y1="290.7" x2="353" y2="290.7">
									<stop  offset="0" style="stop-color:#FFF72E"/>
									<stop  offset="1" style="stop-color:#DEAE29"/>
								</linearGradient>
								<path style="fill:url(#SVGID_00000142145374988860170390000012161311017707901584_);" d="M342.5,275.8L342.5,275.8
									c4.1,2.7,6.7,5.5,7.8,8.3c1.1,2.8,0.7,5.7-1.2,8.5l0,0c-2.4,3.6-5.4,5.2-9,4.6l0,0l-0.1,0.1c0.1,0,1.4,0.8,3.8,2.4l0,0
									l9.2,6.1l-2.6,3.9l-28-18.6c-1.2-0.8-2.2-1.5-3-2s-1.4-0.9-1.9-1.1l0,0l2.5-3.8c0.1,0,0.4,0.2,0.9,0.5s1.1,0.6,1.7,1
									s1,0.6,1.3,0.8l0,0l0.1-0.1c-1-1.7-1.4-3.3-1.3-4.9s0.8-3.3,2-5.2l0,0c1.9-2.9,4.3-4.4,7.2-4.6
									C334.9,271.7,338.4,273,342.5,275.8L342.5,275.8z M339.9,280L339.9,280c-3.3-2.2-5.9-3.3-7.9-3.4s-3.6,0.9-4.9,2.8l0,0
									c-1.4,2.1-1.7,4.2-0.9,6.3c0.8,2,2.9,4.2,6.2,6.4l0,0c3.1,2.1,5.7,3.1,7.8,3.1c2.1,0,3.9-1.1,5.4-3.3l0,0
									c1.3-1.9,1.5-3.8,0.7-5.7C345.4,284.2,343.3,282.2,339.9,280z"/>
								
									<linearGradient id="SVGID_00000147905805674515000460000009022235455879879850_" gradientUnits="userSpaceOnUse" x1="334.62" y1="259.9981" x2="364.3101" y2="259.9981">
									<stop  offset="0" style="stop-color:#FFF72E"/>
									<stop  offset="1" style="stop-color:#DEAE29"/>
								</linearGradient>
								<path style="fill:url(#SVGID_00000147905805674515000460000009022235455879879850_);" d="M355.2,249l-8,18.5
									c3,1.3,5.5,1.7,7.7,1.1c2.1-0.5,3.7-2,4.8-4.4l0,0c0.8-1.9,1.1-3.5,0.8-5c-0.3-1.4-0.9-2.6-1.9-3.5l0,0l2.7-3.3
									c3.4,3.3,3.9,7.7,1.6,13.2l0,0c-1.7,3.8-4.1,6.3-7.2,7.3c-3.2,1-7,0.6-11.5-1.4l0,0c-4.3-1.9-7.1-4.3-8.6-7.3
									c-1.4-3-1.3-6.3,0.3-10.1l0,0c1.7-3.8,4-6.2,7.2-7.1c3.1-0.9,7-0.4,11.6,1.6l0,0L355.2,249z M343.9,266.1l6.1-14
									c-2.8-0.9-5.1-1.1-6.9-0.5s-3.1,2-4,4.1l0,0c-0.9,2.1-0.9,4.1-0.1,5.9C339.9,263.4,341.5,264.9,343.9,266.1z"/>
								
									<linearGradient id="SVGID_00000165199554893449894670000001062292795175442857_" gradientUnits="userSpaceOnUse" x1="342.2" y1="236.3" x2="370.7" y2="236.3">
									<stop  offset="0" style="stop-color:#FFF72E"/>
									<stop  offset="1" style="stop-color:#DEAE29"/>
								</linearGradient>
								<path style="fill:url(#SVGID_00000165199554893449894670000001062292795175442857_);" d="M356.5,238L356.5,238l14.2,3.9
									l-1.2,4.5l-20.9-5.7c-1-0.3-2-0.5-3-0.8c-1.1-0.3-2.2-0.5-3.4-0.8l0,0l1.2-4.3c0.8,0.2,1.5,0.3,2.1,0.5
									c0.6,0.1,1.2,0.3,1.6,0.4c0.5,0.1,0.9,0.2,1.2,0.3c0.3,0.1,0.5,0.1,0.7,0.2l0,0v-0.1c-1.5-1-2.6-1.9-3.4-2.7l0,0
									c-0.7-0.8-1.1-1.6-1.2-2.5c-0.1-0.8,0-1.8,0.3-2.9l0,0c0.2-0.6,0.4-1.2,0.7-1.8l0,0l4.2,1.1c-0.3,0.5-0.6,1.3-0.9,2.3l0,0
									c-0.5,1.9-0.1,3.5,1.3,5C351.3,236.1,353.5,237.2,356.5,238L356.5,238z"/>
							</g>
						</g>
					</g>
				</g>
			</g>
			<rect x="-559.1" y="-559.1" class="st21" width="1498.5" height="1498.5"/>
		</g>
		<g id="SvgjsG4057">
			<g>
				<g>
					<g id="SvgjsG4056">
						<g>
							<g transform="matrix(1,0,0,1,57.446704652707865,57.446704652707865)">
								<g id="SvgjsG4054">
									<circle class="st22" cx="132.7" cy="132.7" r="110"/>
									<path d="M189,93.4c-0.8-3.6-2.1-7.1-3.9-10.5c5.2,1.9,9.4,5.7,12,10.5H189z M168.7,82.9c-5.2,1.9-9.6,5.7-12.3,10.5h8.1
										C165.5,89.7,166.9,86.1,168.7,82.9 M175.1,81.4c-2.4,3.7-4.4,7.8-5.5,12h14.6c-1.1-4.2-2.9-8.3-5.4-12
										c-0.6,0-1.3-0.2-2.1-0.2C176.2,81.4,175.7,81.4,175.1,81.4 M76.6,159.1v9.4h100.2v-24.3c4.2,0,8.4-0.6,12.5-1.9v25.6
										c0,1.6,0.5,3.2,1.6,4.4l6.3,7.8c0.5,0.6,0.8,1.3,0.8,2.1v3.6c0,4.7-3.7,8.4-8.4,8.4H63.8c-4.7,0-8.4-3.7-8.4-8.4v-3.6
										c0-0.8,0.3-1.5,0.8-2.1l6.5-7.9c1-1.3,1.6-2.8,1.6-4.4v-63.1c0-6.8,5.5-12.5,12.5-12.5h62.4c-1.3,4.1-1.9,8.3-1.9,12.5
										H76.6V159.1z M113.3,182c0,2.4,1.9,4.4,4.4,4.4H136c2.4,0,4.4-1.9,4.4-4.4v-1h-27.1C113.3,181,113.3,182,113.3,182z
										 M163.2,104.9c0-2.3,0.2-4.5,0.5-6.8h-9.2c-0.6,2.1-1,4.2-1,6.5s0.3,4.4,1,6.3h9.1C163.4,109,163.2,106.9,163.2,104.9
										 M156.4,115.8c2.6,4.7,6.8,8.4,11.8,10.5c-1.8-3.4-2.9-6.8-3.9-10.5H156.4z M167.9,104.9c0,2.1,0.2,4.1,0.5,6.2h16.7
										c0.3-2.3,0.5-4.4,0.5-6.6c0-2.1-0.2-4.1-0.5-6.2h-16.5C168.1,100.4,167.9,102.6,167.9,104.9 M200.4,81.1
										c13,13,13,34.1,0,46.9c-10.9,10.9-27.6,12.6-40.2,5.2c-5,3.7-10.4,4.4-14.1,3.9c-1.3-0.2-1.5-1.9-0.3-2.4
										c3.4-1.6,5.5-5,6.8-7.8l-0.3-0.3c-11.5-13-11-32.9,1.5-45.4C166.3,68.1,187.4,68.1,200.4,81.1 M196.6,84.8
										c-5.4-5.4-12.3-8.3-19.8-8.3s-14.4,2.9-19.8,8.3c-5.2,5.4-8.1,12.3-8.1,19.8s2.9,14.4,8.3,19.8c5.4,5.4,12.3,8.3,19.8,8.3
										s14.4-2.9,19.8-8.3s8.3-12.3,8.3-19.8C204.9,97.1,202,90.2,196.6,84.8 M174.7,127.8c0.6,0,1.5,0.2,2.1,0.2h1.6
										c2.4-3.7,4.4-7.8,5.5-12h-14.8C170.5,120,172.3,124.1,174.7,127.8 M190.3,104.3c0,2.3-0.2,4.5-0.5,6.6h9.4
										c0.6-2.1,1-4.2,1-6.3c0-2.3-0.3-4.4-1-6.5H190C190.1,100.2,190.3,102.2,190.3,104.3 M184.8,126.5
										c5.4-1.9,9.7-5.8,12.5-10.7H189C188,119.5,186.6,123.1,184.8,126.5"/>
								</g>
							</g>
							<g id="SvgjsG4052">
							</g>
							<g id="SvgjsG4051">
							</g>
						</g>
					</g>
				</g>
			</g>
			<g id="SvgjsG4050">
				<g>
					<g>
						<g id="SvgjsG4049">
							<g>
								<g transform="matrix(1,0,0,1,57.446704652707865,57.446704652707865)">
									<g id="SvgjsG4047">
										
											<linearGradient id="SVGID_00000074430656453803795130000005845423839852805768_" gradientUnits="userSpaceOnUse" x1="-34.1367" y1="192.4633" x2="185.8633" y2="192.4633" gradientTransform="matrix(1 0 0 -1 56.8367 325.1633)">
											<stop  offset="0" style="stop-color:#FFF72E"/>
											<stop  offset="1" style="stop-color:#DEAE29"/>
										</linearGradient>
										<circle style="fill:url(#SVGID_00000074430656453803795130000005845423839852805768_);" cx="132.7" cy="132.7" r="110"/>
										<path d="M189,93.4c-0.8-3.6-2.1-7.1-3.9-10.5c5.2,1.9,9.4,5.7,12,10.5H189z M168.7,82.9c-5.2,1.9-9.6,5.7-12.3,10.5h8.1
											C165.5,89.7,166.9,86.1,168.7,82.9 M175.1,81.4c-2.4,3.7-4.4,7.8-5.5,12h14.6c-1.1-4.2-2.9-8.3-5.4-12
											c-0.6,0-1.3-0.2-2.1-0.2C176.2,81.4,175.7,81.4,175.1,81.4 M76.6,159.1v9.4h100.2v-24.3c4.2,0,8.4-0.6,12.5-1.9v25.6
											c0,1.6,0.5,3.2,1.6,4.4l6.3,7.8c0.5,0.6,0.8,1.3,0.8,2.1v3.6c0,4.7-3.7,8.4-8.4,8.4H63.8c-4.7,0-8.4-3.7-8.4-8.4v-3.6
											c0-0.8,0.3-1.5,0.8-2.1l6.5-7.9c1-1.3,1.6-2.8,1.6-4.4v-63.1c0-6.8,5.5-12.5,12.5-12.5h62.4c-1.3,4.1-1.9,8.3-1.9,12.5
											H76.6V159.1z M113.3,182c0,2.4,1.9,4.4,4.4,4.4H136c2.4,0,4.4-1.9,4.4-4.4v-1h-27.1C113.3,181,113.3,182,113.3,182z
											 M163.2,104.9c0-2.3,0.2-4.5,0.5-6.8h-9.2c-0.6,2.1-1,4.2-1,6.5s0.3,4.4,1,6.3h9.1C163.4,109,163.2,106.9,163.2,104.9
											 M156.4,115.8c2.6,4.7,6.8,8.4,11.8,10.5c-1.8-3.4-2.9-6.8-3.9-10.5H156.4z M167.9,104.9c0,2.1,0.2,4.1,0.5,6.2h16.7
											c0.3-2.3,0.5-4.4,0.5-6.6c0-2.1-0.2-4.1-0.5-6.2h-16.5C168.1,100.4,167.9,102.6,167.9,104.9 M200.4,81.1
											c13,13,13,34.1,0,46.9c-10.9,10.9-27.6,12.6-40.2,5.2c-5,3.7-10.4,4.4-14.1,3.9c-1.3-0.2-1.5-1.9-0.3-2.4
											c3.4-1.6,5.5-5,6.8-7.8l-0.3-0.3c-11.5-13-11-32.9,1.5-45.4C166.3,68.1,187.4,68.1,200.4,81.1 M196.6,84.8
											c-5.4-5.4-12.3-8.3-19.8-8.3s-14.4,2.9-19.8,8.3c-5.2,5.4-8.1,12.3-8.1,19.8s2.9,14.4,8.3,19.8c5.4,5.4,12.3,8.3,19.8,8.3
											s14.4-2.9,19.8-8.3s8.3-12.3,8.3-19.8C204.9,97.1,202,90.2,196.6,84.8 M174.7,127.8c0.6,0,1.5,0.2,2.1,0.2h1.6
											c2.4-3.7,4.4-7.8,5.5-12h-14.8C170.5,120,172.3,124.1,174.7,127.8 M190.3,104.3c0,2.3-0.2,4.5-0.5,6.6h9.4
											c0.6-2.1,1-4.2,1-6.3c0-2.3-0.3-4.4-1-6.5H190C190.1,100.2,190.3,102.2,190.3,104.3 M184.8,126.5
											c5.4-1.9,9.7-5.8,12.5-10.7H189C188,119.5,186.6,123.1,184.8,126.5"/>
									</g>
								</g>
							</g>
						</g>
					</g>
				</g>
				<rect x="-559.1" y="-559.1" class="st21" width="1498.5" height="1498.5"/>
			</g>
			<rect x="-559.1" y="-559.1" class="st21" width="1498.5" height="1498.5"/>
		</g>
		<rect x="-559.1" y="-559.1" class="st24" width="1498.5" height="1498.5"/>
	</g>
</g>
</svg>
