<svg xmlns="http://www.w3.org/2000/svg" version="1.1" xmlns:xlink="http://www.w3.org/1999/xlink" xmlns:svgjs="http://svgjs.dev/svgjs" width="1500" height="1500" viewBox="0 0 1500 1500"><rect width="1500" height="1500" fill="#000000"></rect><g transform="matrix(0.6666666666666666,0,0,0.6666666666666666,249.50000000000006,249.50000000000006)"><svg viewBox="0 0 280 280" data-background-color="#000000" preserveAspectRatio="xMidYMid meet" height="1500" width="1500" xmlns="http://www.w3.org/2000/svg" xmlns:xlink="http://www.w3.org/1999/xlink"><g id="tight-bounds" transform="matrix(1,0,0,1,0.13999999999998636,0.13999999999998636)"><svg viewBox="0 0 279.72 279.72" height="279.72" width="279.72"><g><svg viewBox="0 0 279.72 279.72" height="279.72" width="279.72"><g><svg viewBox="0 0 279.72 279.72" height="279.72" width="279.72"><g id="textblocktransform"><svg viewBox="0 0 279.72 279.72" height="279.72" width="279.72" id="textblock"><g><svg viewBox="0 0 279.72 279.72" height="279.72" width="279.72"><g transform="matrix(1,0,0,1,57.446704652707865,57.446704652707865)"><svg viewBox="0 0 164.8265906945843 164.8265906945843" height="164.8265906945843" width="164.8265906945843"><g id="icon-0"><svg xmlns="http://www.w3.org/2000/svg" xmlns:xlink="http://www.w3.org/1999/xlink" version="1.1" x="24.72398860418764" y="24.723988604187646" viewBox="2.3 12.100000000000001 95.40000000000002 75.69999999999999" enable-background="new 0 0 100 100" xml:space="preserve" height="115.378613486209" width="115.378613486209" class="icon-jxe-0" data-fill-palette-color="quaternary" id="jxe-0"><path d="M84.7 25.7C84.2 23.5 83.4 21.3 82.3 19.2 85.5 20.4 88.1 22.7 89.7 25.7zM72.2 19.2C69 20.4 66.3 22.7 64.6 25.7H69.6C70.2 23.4 71.1 21.2 72.2 19.2M76.1 18.3C74.6 20.6 73.4 23.1 72.7 25.7H81.7C81 23.1 79.9 20.6 78.4 18.3 78 18.3 77.6 18.2 77.1 18.2 76.8 18.3 76.5 18.3 76.1 18.3M15.4 66.2V72H77.2V57C79.8 57 82.4 56.6 84.9 55.8V71.6C84.9 72.6 85.2 73.6 85.9 74.3L89.8 79.1C90.1 79.5 90.3 79.9 90.3 80.4V82.6C90.3 85.5 88 87.8 85.1 87.8H7.5C4.6 87.8 2.3 85.5 2.3 82.6V80.4C2.3 79.9 2.5 79.5 2.8 79.1L6.8 74.2C7.4 73.4 7.8 72.5 7.8 71.5V32.6C7.8 28.4 11.2 24.9 15.5 24.9H54C53.2 27.4 52.8 30 52.8 32.6H15.4zM38 80.3C38 81.8 39.2 83 40.7 83H52C53.5 83 54.7 81.8 54.7 80.3V79.7H38zM68.8 32.8C68.8 31.4 68.9 30 69.1 28.6H63.4C63 29.9 62.8 31.2 62.8 32.6S63 35.3 63.4 36.5H69C68.9 35.3 68.8 34 68.8 32.8M64.6 39.5C66.2 42.4 68.8 44.7 71.9 46 70.8 43.9 70.1 41.8 69.5 39.5zM71.7 32.8C71.7 34.1 71.8 35.3 72 36.6H82.3C82.5 35.2 82.6 33.9 82.6 32.5 82.6 31.2 82.5 30 82.3 28.7H72.1C71.8 30 71.7 31.4 71.7 32.8M91.7 18.1C99.7 26.1 99.7 39.1 91.7 47 85 53.7 74.7 54.8 66.9 50.2 63.8 52.5 60.5 52.9 58.2 52.6 57.4 52.5 57.3 51.4 58 51.1 60.1 50.1 61.4 48 62.2 46.3L62 46.1C54.9 38.1 55.2 25.8 62.9 18.1 70.7 10.1 83.7 10.1 91.7 18.1M89.4 20.4C86.1 17.1 81.8 15.3 77.2 15.3S68.3 17.1 65 20.4C61.8 23.7 60 28 60 32.6S61.8 41.5 65.1 44.8 72.7 49.9 77.3 49.9 86.2 48.1 89.5 44.8 94.6 37.2 94.6 32.6C94.5 28 92.7 23.7 89.4 20.4M75.9 46.9C76.3 46.9 76.8 47 77.2 47H78.2C79.7 44.7 80.9 42.2 81.6 39.6H72.5C73.3 42.1 74.4 44.6 75.9 46.9M85.5 32.4C85.5 33.8 85.4 35.2 85.2 36.5H91C91.4 35.2 91.6 33.9 91.6 32.6 91.6 31.2 91.4 29.9 91 28.6H85.3C85.4 29.9 85.5 31.1 85.5 32.4M82.1 46.1C85.4 44.9 88.1 42.5 89.8 39.5H84.7C84.1 41.8 83.2 44 82.1 46.1" fill="#000000" data-fill-palette-color="quaternary"></path></svg></g></svg></g><g id="text-0"></g><g id="text-1"></g></svg></g></svg></g></svg></g></svg></g><defs></defs><mask id="da8032b4-2040-497e-9d18-fd98650cf5ab"><g id="SvgjsG4028"><svg viewBox="0 0 279.72 279.72" height="279.72" width="279.72"><g><svg viewBox="0 0 279.72 279.72" height="279.72" width="279.72"><g><svg viewBox="0 0 279.72 279.72" height="279.72" width="279.72"><g id="SvgjsG4027"><svg viewBox="0 0 279.72 279.72" height="279.72" width="279.72" id="SvgjsSvg4026"><g><svg viewBox="0 0 279.72 279.72" height="279.72" width="279.72"><g transform="matrix(1,0,0,1,57.446704652707865,57.446704652707865)"><svg viewBox="0 0 164.8265906945843 164.8265906945843" height="164.8265906945843" width="164.8265906945843"><g id="SvgjsG4025"><circle r="82" cx="82.41329534729215" cy="82.41329534729215" fill="black"></circle><svg xmlns="http://www.w3.org/2000/svg" xmlns:xlink="http://www.w3.org/1999/xlink" version="1.1" x="24.72398860418764" y="24.723988604187646" viewBox="2.3 12.100000000000001 95.40000000000002 75.69999999999999" enable-background="new 0 0 100 100" xml:space="preserve" height="115.378613486209" width="115.378613486209" class="icon-jxe-0" data-fill-palette-color="quaternary" id="SvgjsSvg4024"><path d="M84.7 25.7C84.2 23.5 83.4 21.3 82.3 19.2 85.5 20.4 88.1 22.7 89.7 25.7zM72.2 19.2C69 20.4 66.3 22.7 64.6 25.7H69.6C70.2 23.4 71.1 21.2 72.2 19.2M76.1 18.3C74.6 20.6 73.4 23.1 72.7 25.7H81.7C81 23.1 79.9 20.6 78.4 18.3 78 18.3 77.6 18.2 77.1 18.2 76.8 18.3 76.5 18.3 76.1 18.3M15.4 66.2V72H77.2V57C79.8 57 82.4 56.6 84.9 55.8V71.6C84.9 72.6 85.2 73.6 85.9 74.3L89.8 79.1C90.1 79.5 90.3 79.9 90.3 80.4V82.6C90.3 85.5 88 87.8 85.1 87.8H7.5C4.6 87.8 2.3 85.5 2.3 82.6V80.4C2.3 79.9 2.5 79.5 2.8 79.1L6.8 74.2C7.4 73.4 7.8 72.5 7.8 71.5V32.6C7.8 28.4 11.2 24.9 15.5 24.9H54C53.2 27.4 52.8 30 52.8 32.6H15.4zM38 80.3C38 81.8 39.2 83 40.7 83H52C53.5 83 54.7 81.8 54.7 80.3V79.7H38zM68.8 32.8C68.8 31.4 68.9 30 69.1 28.6H63.4C63 29.9 62.8 31.2 62.8 32.6S63 35.3 63.4 36.5H69C68.9 35.3 68.8 34 68.8 32.8M64.6 39.5C66.2 42.4 68.8 44.7 71.9 46 70.8 43.9 70.1 41.8 69.5 39.5zM71.7 32.8C71.7 34.1 71.8 35.3 72 36.6H82.3C82.5 35.2 82.6 33.9 82.6 32.5 82.6 31.2 82.5 30 82.3 28.7H72.1C71.8 30 71.7 31.4 71.7 32.8M91.7 18.1C99.7 26.1 99.7 39.1 91.7 47 85 53.7 74.7 54.8 66.9 50.2 63.8 52.5 60.5 52.9 58.2 52.6 57.4 52.5 57.3 51.4 58 51.1 60.1 50.1 61.4 48 62.2 46.3L62 46.1C54.9 38.1 55.2 25.8 62.9 18.1 70.7 10.1 83.7 10.1 91.7 18.1M89.4 20.4C86.1 17.1 81.8 15.3 77.2 15.3S68.3 17.1 65 20.4C61.8 23.7 60 28 60 32.6S61.8 41.5 65.1 44.8 72.7 49.9 77.3 49.9 86.2 48.1 89.5 44.8 94.6 37.2 94.6 32.6C94.5 28 92.7 23.7 89.4 20.4M75.9 46.9C76.3 46.9 76.8 47 77.2 47H78.2C79.7 44.7 80.9 42.2 81.6 39.6H72.5C73.3 42.1 74.4 44.6 75.9 46.9M85.5 32.4C85.5 33.8 85.4 35.2 85.2 36.5H91C91.4 35.2 91.6 33.9 91.6 32.6 91.6 31.2 91.4 29.9 91 28.6H85.3C85.4 29.9 85.5 31.1 85.5 32.4M82.1 46.1C85.4 44.9 88.1 42.5 89.8 39.5H84.7C84.1 41.8 83.2 44 82.1 46.1" fill="black"></path></svg></g></svg></g><g id="SvgjsG4023"><path d="M21.301 98.715v0l0.274 0.182 14.727-5.978 0.348 0.124-0.35 4.094c-1.448 0.475-2.971 0.984-4.571 1.527-1.599 0.542-3.129 1.059-4.589 1.551-1.465 0.484-2.73 0.922-3.795 1.314-1.063 0.386-1.781 0.668-2.156 0.846v0c-0.308 0.152-0.512 0.366-0.61 0.642v0c1.814 0.644 3.64 1.285 5.477 1.923 1.831 0.636 3.674 1.226 5.531 1.772v0l-0.021 3.523-0.489 0.304c-2.693-1.133-5.408-2.206-8.144-3.22-2.736-1.013-5.478-2.008-8.228-2.984v0c-0.151-0.053-0.47-0.16-0.958-0.318-0.481-0.157-1.054-0.346-1.717-0.567-0.657-0.219-1.336-0.446-2.038-0.681-0.695-0.233-1.309-0.443-1.842-0.633v0c-0.402-0.143-0.807-0.036-1.217 0.321-0.407 0.35-0.749 0.738-1.027 1.162-0.28 0.431-0.442 0.709-0.487 0.834v0l-0.636-0.268-0.146-0.306 3.653-10.291c0.824-2.322 1.927-4.026 3.309-5.112 1.376-1.088 2.948-1.318 4.718-0.689v0c1.739 0.617 3.034 1.487 3.887 2.609 0.85 1.129 1.334 2.403 1.452 3.823 0.124 1.422 0.006 2.921-0.355 4.496zM18.372 102.276v0c0.1 0.036 0.229 0.053 0.385 0.052 0.156-0.001 0.256-0.065 0.301-0.19v0c0.492-1.387 0.747-2.781 0.763-4.182 0.017-1.401-0.31-2.661-0.979-3.782-0.672-1.115-1.751-1.936-3.239-2.464v0c-1.211-0.43-2.251-0.438-3.118-0.025-0.876 0.417-1.598 1.069-2.168 1.955-0.571 0.893-1.032 1.832-1.381 2.817v0l-0.535 1.506c-0.1 0.282 0.172 0.552 0.815 0.809v0c0.474 0.197 1.086 0.435 1.835 0.715 0.755 0.282 1.542 0.583 2.362 0.902 0.826 0.321 1.61 0.621 2.353 0.899 0.736 0.275 1.344 0.505 1.822 0.689 0.473 0.182 0.734 0.282 0.784 0.299z" fill="white"></path><path d="M39.299 46.326v0c0.48 0.472 0.716 1.02 0.708 1.643-0.013 0.628-0.234 1.178-0.664 1.651v0c-0.435 0.478-0.972 0.732-1.612 0.763-0.64 0.03-1.199-0.172-1.677-0.606v0c-0.513-0.466-0.731-1.043-0.655-1.73 0.081-0.683 0.32-1.243 0.719-1.682v0c0.466-0.513 0.999-0.752 1.6-0.72 0.601 0.042 1.128 0.269 1.581 0.681zM45.849 53.038v0l6.017 5.916c1.089 0.99 2.022 1.672 2.799 2.045 0.777 0.383 1.399 0.318 1.865-0.195v0c0.524-0.577 0.846-1.198 0.965-1.864 0.119-0.675 0.18-1.371 0.184-2.088v0l0.645-0.115 0.325 0.295c0.134 0.734 0.221 1.524 0.262 2.371 0.041 0.856-0.02 1.67-0.181 2.442-0.166 0.776-0.5 1.441-1.001 1.992v0c-0.381 0.419-0.811 0.743-1.291 0.974-0.479 0.23-1.059 0.239-1.738 0.026-0.67-0.213-1.491-0.761-2.462-1.643v0l-6.403-6.146c-0.774-0.703-1.454-1.187-2.042-1.451-0.593-0.269-1.068-0.206-1.427 0.188v0c-0.291 0.32-0.539 0.801-0.745 1.443-0.205 0.651-0.36 1.252-0.465 1.804v0l-0.889-0.106c0.077-1.154 0.226-2.328 0.447-3.522 0.216-1.198 0.585-2.084 1.104-2.656v0c0.614-0.675 1.275-0.942 1.985-0.801 0.709 0.131 1.391 0.495 2.046 1.091z" fill="white"></path><path d="M88.374 22.474v0l-1.277 2.33-0.555-0.027c-0.453-0.755-0.99-1.313-1.613-1.672-0.619-0.354-1.334-0.32-2.143 0.101v0c-0.833 0.433-1.386 1.066-1.659 1.898-0.276 0.841-0.198 1.676 0.232 2.503v0c0.372 0.715 1.018 1.156 1.938 1.324 0.917 0.176 2.173 0.195 3.768 0.056v0c1.687-0.119 3.04-0.023 4.057 0.289 1.027 0.314 1.755 0.885 2.186 1.712v0c0.63 1.211 0.819 2.404 0.566 3.579-0.247 1.172-0.779 2.233-1.598 3.185-0.819 0.951-1.751 1.699-2.798 2.243v0c-1.07 0.556-2.17 0.858-3.301 0.906-1.137 0.051-2.295-0.327-3.472-1.134v0l0.428-3.443 0.523-0.227c0.639 1.056 1.551 1.799 2.735 2.226 1.189 0.425 2.342 0.347 3.459-0.233v0c0.756-0.393 1.311-1.023 1.664-1.89 0.35-0.858 0.333-1.656-0.052-2.394v0c-0.32-0.615-0.769-1.045-1.347-1.293-0.576-0.241-1.212-0.375-1.91-0.403-0.695-0.037-1.39-0.024-2.086 0.038v0c-0.893 0.074-1.789 0.089-2.69 0.047-0.897-0.051-1.709-0.248-2.435-0.591-0.724-0.352-1.288-0.918-1.694-1.698v0c-0.556-1.07-0.722-2.147-0.498-3.232 0.221-1.076 0.702-2.065 1.441-2.968 0.742-0.897 1.598-1.597 2.567-2.1v0c0.62-0.323 1.281-0.546 1.982-0.671 0.707-0.127 1.379-0.083 2.018 0.133 0.635 0.21 1.156 0.679 1.564 1.406z" fill="white"></path><path d="M143.13 23.94v0c0.778-0.049 1.466-0.306 2.064-0.77 0.604-0.472 1.082-0.892 1.432-1.262v0l0.544 0.366 0.027 0.439c-0.818 0.992-1.73 1.931-2.735 2.815-1.006 0.877-2.11 1.354-3.314 1.43v0c-0.931 0.059-1.631-0.311-2.102-1.109-0.464-0.805-0.728-1.703-0.79-2.693v0c-0.045-0.718-0.084-1.54-0.115-2.466-0.032-0.926-0.06-1.808-0.087-2.647-0.027-0.846-0.055-1.508-0.085-1.987v0c-0.064-1.017-0.202-1.939-0.414-2.766-0.213-0.834-0.58-1.482-1.103-1.943-0.53-0.467-1.287-0.67-2.271-0.608v0c-1.097 0.069-2.111 0.396-3.041 0.982-0.931 0.579-1.765 1.172-2.501 1.779v0c0.138 2.194 0.263 4.395 0.376 6.604 0.112 2.202 0.236 4.386 0.372 6.553v0l-2.826 1.059-0.275-0.383c-0.027-2.654-0.07-5.308-0.13-7.96-0.06-2.652-0.16-5.302-0.3-7.95v0c-0.128-2.027-0.239-3.796-0.334-5.304-0.095-1.509-0.434-2.609-1.019-3.3v0c-0.201-0.228-0.64-0.407-1.315-0.537-0.682-0.131-1.293-0.232-1.831-0.306v0l-0.046-0.727 0.19-0.173 6.289-1.076 0.256 0.264c0.028 1.713 0.095 3.528 0.203 5.443 0.107 1.909 0.218 3.784 0.334 5.625v0l0.34 0.309c1.131-0.799 2.357-1.566 3.679-2.304 1.321-0.744 2.716-1.162 4.185-1.254v0c0.292-0.018 0.714 0.049 1.264 0.2 0.543 0.153 1.013 0.407 1.409 0.763v0c0.653 0.519 1.027 1.427 1.123 2.722 0.095 1.295 0.193 2.744 0.293 4.346v0l0.186 2.961c0.026 0.405 0.049 0.888 0.071 1.447 0.022 0.566 0.09 1.112 0.204 1.639 0.113 0.527 0.308 0.965 0.583 1.315 0.275 0.343 0.679 0.498 1.21 0.464z" fill="white"></path><path d="M191.235 16.822v0c0.604 0.228 1.232 0.594 1.882 1.096 0.654 0.511 1.2 1.091 1.638 1.741v0l2.432-0.416 0.117 0.258c-1.181 2.672-2.288 5.373-3.32 8.101v0c-0.219 0.579-0.499 1.264-0.84 2.054-0.339 0.783-0.626 1.561-0.861 2.333-0.233 0.766-0.333 1.444-0.299 2.034 0.042 0.586 0.312 0.973 0.81 1.161v0c0.274 0.104 0.679 0.171 1.216 0.203 0.53 0.029 1.023 0.045 1.478 0.047v0l-0.078 0.996c-0.611 0.111-1.269 0.229-1.971 0.354-0.707 0.117-1.379 0.191-2.017 0.221-0.644 0.027-1.165-0.035-1.564-0.186v0c-0.704-0.266-1.125-0.668-1.264-1.204-0.139-0.537-0.152-1.143-0.038-1.82v0l-0.504-0.361c-1.154 0.247-2.339 0.422-3.553 0.526-1.212 0.097-2.366-0.061-3.462-0.476v0c-1.053-0.398-1.846-0.955-2.381-1.67-0.528-0.712-0.869-1.514-1.024-2.405-0.148-0.889-0.153-1.799-0.014-2.73 0.141-0.937 0.372-1.832 0.694-2.685v0c0.502-1.327 1.156-2.55 1.964-3.668 0.81-1.125 1.765-2.06 2.866-2.805 1.094-0.747 2.316-1.2 3.665-1.359 1.351-0.165 2.828 0.054 4.428 0.66zM184.599 32v0c0.723 0.273 1.496 0.366 2.319 0.279 0.82-0.096 1.587-0.251 2.302-0.465v0l3.264-8.635c0.191-0.505 0.346-0.991 0.466-1.458 0.12-0.467 0.093-0.923-0.081-1.366v0c-0.198-0.474-0.477-0.914-0.836-1.32-0.359-0.406-0.778-0.7-1.259-0.881v0c-1.377-0.521-2.747-0.494-4.11 0.08v0c-0.574 0.239-1.283 0.814-2.127 1.727-0.841 0.907-1.65 2.303-2.427 4.187v0c-0.319 0.769-0.55 1.576-0.691 2.42-0.15 0.848-0.135 1.676 0.044 2.484v0c0.161 0.78 0.549 1.4 1.165 1.861 0.61 0.458 1.267 0.821 1.971 1.087z" fill="white"></path><path d="M235.466 34.863v0l0.601-0.6 0.311 0.029 5.302 4.291-0.028 0.368c-1.268 1.04-2.516 2.099-3.746 3.176-1.235 1.082-2.439 2.209-3.613 3.381v0l-0.933 0.932 0.106 0.403c1.328 0.189 2.616 0.494 3.863 0.914 1.252 0.415 2.359 1.104 3.319 2.065v0c0.889 0.891 1.414 1.845 1.574 2.862 0.164 1.013 0.05 2.016-0.342 3.009-0.387 0.989-0.979 1.881-1.775 2.677v0c-0.627 0.626-1.289 1.212-1.986 1.757-0.702 0.551-1.461 1.026-2.276 1.426v0c-1.329 0.677-2.784 1.025-4.366 1.042-1.592 0.018-3.136-0.257-4.634-0.823-1.493-0.571-2.778-1.396-3.855-2.475v0c-0.475-0.476-0.878-1.067-1.207-1.774-0.334-0.711-0.399-1.517-0.196-2.416 0.198-0.895 0.818-1.862 1.86-2.902v0l13.523-13.505c0.344-0.344 0.518-0.626 0.524-0.847 0.01-0.217-0.15-0.537-0.48-0.961-0.329-0.424-0.845-1.1-1.546-2.029zM231.996 48.029v0c-0.495 0.456-1.058 0.972-1.69 1.546-0.636 0.579-1.23 1.144-1.781 1.694v0c-1.06 1.059-1.942 2.061-2.644 3.008-0.698 0.941-1.075 1.841-1.133 2.697-0.057 0.848 0.331 1.689 1.164 2.523v0c1.002 1.004 2.073 1.549 3.213 1.634 1.149 0.086 2.272-0.147 3.371-0.697 1.098-0.541 2.083-1.247 2.954-2.117v0c1.042-1.04 1.779-1.96 2.213-2.761 0.439-0.796 0.705-1.448 0.8-1.956v0c0.095-0.471 0.102-1.01 0.022-1.618-0.07-0.608-0.378-1.185-0.924-1.731v0c-0.758-0.759-1.617-1.303-2.578-1.634-0.951-0.33-1.947-0.526-2.987-0.588z" fill="white"></path><path d="M256.434 109.322v0c0.266 0.732 0.706 1.32 1.321 1.763 0.623 0.447 1.161 0.787 1.614 1.019v0l-0.199 0.625-0.413 0.15c-1.183-0.506-2.34-1.116-3.471-1.832-1.125-0.718-1.894-1.643-2.306-2.777v0c-0.318-0.876-0.161-1.653 0.472-2.329 0.642-0.672 1.429-1.178 2.362-1.517v0c0.676-0.246 1.454-0.514 2.333-0.805 0.879-0.291 1.718-0.567 2.515-0.828 0.804-0.264 1.432-0.478 1.883-0.642v0c0.958-0.348 1.804-0.74 2.538-1.177 0.74-0.439 1.258-0.974 1.553-1.605 0.299-0.64 0.28-1.423-0.057-2.35v0c-0.375-1.033-0.975-1.913-1.799-2.642-0.818-0.73-1.622-1.363-2.411-1.898v0c-2.066 0.75-4.142 1.491-6.23 2.221-2.081 0.728-4.142 1.462-6.183 2.203v0l-1.812-2.414 0.29-0.371c2.539-0.774 5.073-1.563 7.601-2.368 2.528-0.805 5.042-1.647 7.543-2.527v0c1.909-0.694 3.575-1.298 4.995-1.815 1.421-0.516 2.381-1.152 2.879-1.906v0c0.162-0.257 0.21-0.728 0.145-1.414-0.067-0.691-0.141-1.306-0.223-1.843v0l0.686-0.249 0.218 0.134 2.805 5.73-0.181 0.321c-1.636 0.509-3.358 1.085-5.166 1.728-1.801 0.64-3.569 1.275-5.302 1.905v0l-0.201 0.413c1.085 0.86 2.167 1.82 3.247 2.881 1.086 1.058 1.88 2.279 2.382 3.662v0c0.1 0.275 0.155 0.699 0.164 1.27 0.007 0.564-0.105 1.087-0.334 1.567v0c-0.314 0.773-1.08 1.388-2.296 1.843-1.216 0.456-2.579 0.958-4.088 1.506v0l-2.788 1.014c-0.382 0.139-0.838 0.297-1.369 0.475-0.537 0.181-1.042 0.4-1.515 0.657-0.474 0.257-0.839 0.567-1.097 0.93-0.252 0.361-0.286 0.791-0.105 1.292z" fill="white"></path><path d="M13.863 143.067c0-1.738 1.409-3.147 3.148-3.148 1.738 0 3.147 1.409 3.147 3.148 0 1.738-1.409 3.147-3.147 3.147-1.738 0-3.147-1.409-3.148-3.147z" fill="white"></path><path d="M265.377 143.067c0-1.738 1.409-3.147 3.147-3.148 1.738 0 3.147 1.409 3.148 3.148 0 1.738-1.409 3.147-3.148 3.147-1.738 0-3.147-1.409-3.147-3.147z" fill="white"></path></g><g id="SvgjsG4022"><path d="M69.523 235.823v0l-14.435 10.735-3.505-2.736 10.526-26.623 3.055 2.385-6.849 16.782c-0.436 1.045-0.895 2.094-1.377 3.145-0.483 1.051-0.981 2.107-1.496 3.166v0c0.379-0.312 0.879-0.725 1.499-1.238 0.625-0.509 1.266-1.027 1.922-1.554 0.656-0.527 1.22-0.962 1.69-1.304v0l14.889-10.975 2.812 2.194-6.752 16.414c-0.568 1.323-1.103 2.54-1.607 3.65-0.508 1.116-0.975 2.116-1.403 2.999v0c0.624-0.485 1.294-1.014 2.011-1.587 0.713-0.567 1.371-1.08 1.974-1.538 0.602-0.468 1.029-0.798 1.28-0.991v0l14.743-10.95 3.064 2.391-23.277 16.672-3.504-2.736 6.983-16.677c0.215-0.525 0.533-1.24 0.952-2.146 0.419-0.915 0.947-2.02 1.585-3.313v0c-0.517 0.467-1.094 0.958-1.733 1.474-0.644 0.511-1.241 0.979-1.792 1.402-0.554 0.429-0.973 0.749-1.255 0.959z" fill="white"></path><path d="M98.685 262.565l-13.601-6.457c-1.037 2.184-1.382 4.084-1.036 5.701 0.34 1.614 1.379 2.833 3.118 3.659v0c1.372 0.651 2.604 0.897 3.697 0.738 1.087-0.162 1.978-0.595 2.673-1.297v0l2.403 2.114c-2.562 2.463-5.862 2.735-9.9 0.819v0c-2.822-1.34-4.568-3.197-5.239-5.573-0.677-2.378-0.23-5.222 1.34-8.532v0c1.494-3.147 3.376-5.21 5.648-6.188 2.265-0.982 4.766-0.823 7.504 0.477v0c2.804 1.331 4.505 3.175 5.104 5.531 0.593 2.353 0.09 5.215-1.509 8.584v0zM86.277 253.689l10.289 4.884c0.777-2.086 0.959-3.791 0.548-5.115-0.402-1.326-1.398-2.367-2.986-3.12v0c-1.534-0.728-2.997-0.792-4.388-0.192-1.385 0.603-2.539 1.784-3.463 3.543z" fill="white"></path><path d="M120.512 267.736v0c-0.979 3.544-2.336 6.029-4.071 7.457-1.735 1.428-3.848 1.797-6.339 1.109v0c-1.541-0.426-2.744-1.059-3.611-1.899-0.866-0.841-1.449-1.969-1.749-3.386v0l-0.029-0.008c-0.069 0.25-0.182 0.61-0.339 1.078-0.159 0.474-0.307 0.91-0.444 1.307-0.137 0.397-0.231 0.637-0.282 0.72v0l-3.265-0.902c0.126-0.331 0.295-0.841 0.506-1.529 0.211-0.688 0.464-1.565 0.758-2.63v0l6.546-23.689 3.38 0.934-2.195 7.944c-0.11 0.398-0.239 0.839-0.387 1.324-0.139 0.48-0.297 0.989-0.474 1.527v0l0.068 0.019c0.987-1.123 2.076-1.824 3.265-2.103 1.19-0.279 2.548-0.208 4.077 0.214v0c2.568 0.71 4.217 2.095 4.946 4.155 0.73 2.06 0.609 4.846-0.361 8.358zM116.939 266.863v0c0.784-2.838 0.971-4.976 0.561-6.417-0.412-1.434-1.466-2.385-3.161-2.853v0c-1.9-0.525-3.467-0.257-4.7 0.805-1.233 1.062-2.241 3.008-3.024 5.84v0c-0.736 2.664-0.854 4.753-0.353 6.266 0.503 1.507 1.71 2.525 3.624 3.054v0c1.708 0.472 3.115 0.18 4.222-0.875 1.105-1.049 2.049-2.989 2.831-5.82z" fill="white"></path><path d="M160.032 265.287v0c0.051 2.897-0.464 5.401-1.546 7.512-1.088 2.118-2.628 3.757-4.619 4.918-1.984 1.168-4.302 1.775-6.952 1.821v0l-10.269 0.182-0.486-27.46 9.08-0.16c4.648-0.082 8.258 1.02 10.83 3.305 2.565 2.286 3.886 5.58 3.962 9.882zM156.296 265.353v0c-0.06-3.403-1.038-5.98-2.935-7.731-1.896-1.752-4.612-2.596-8.148-2.534v0l-5.284 0.093 0.38 21.487 6.123-0.109c2.038-0.036 3.801-0.514 5.291-1.432 1.482-0.926 2.625-2.221 3.428-3.888 0.803-1.66 1.185-3.621 1.145-5.886z" fill="white"></path><path d="M182 264.253l-14.668 3.393c0.545 2.355 1.455 4.059 2.73 5.111 1.269 1.053 2.841 1.363 4.717 0.929v0c1.479-0.342 2.598-0.915 3.355-1.72 0.751-0.803 1.18-1.695 1.288-2.677v0l3.196 0.163c-0.477 3.522-2.893 5.786-7.247 6.794v0c-3.043 0.704-5.566 0.334-7.568-1.11-2.009-1.443-3.426-3.948-4.251-7.517v0c-0.785-3.394-0.592-6.18 0.578-8.358 1.164-2.177 3.223-3.607 6.176-4.29v0c3.024-0.7 5.503-0.313 7.436 1.161 1.927 1.475 3.311 4.03 4.152 7.664v0zM166.763 265.009l11.096-2.567c-0.688-2.117-1.604-3.566-2.749-4.347-1.14-0.789-2.566-0.986-4.28-0.589v0c-1.655 0.383-2.84 1.242-3.557 2.576-0.71 1.333-0.88 2.976-0.51 4.927z" fill="white"></path><path d="M194.058 246.769l3.412-1.474 1.139 22.482-3.815 1.649-15.391-16.324 3.43-1.482 9.71 10.758c0.183 0.204 0.528 0.617 1.036 1.239 0.514 0.619 1.189 1.442 2.024 2.466v0c-0.042-0.533-0.099-1.085-0.172-1.656-0.073-0.571-0.135-1.128-0.189-1.671-0.059-0.54-0.102-1.026-0.129-1.457v0z" fill="white"></path><path d="M219.431 244.641l-12.736 8.03c1.29 2.045 2.71 3.354 4.26 3.928 1.545 0.577 3.131 0.352 4.76-0.675v0c1.285-0.81 2.152-1.719 2.603-2.728 0.445-1.005 0.557-1.989 0.336-2.951v0l3.071-0.898c0.708 3.483-0.828 6.416-4.608 8.8v0c-2.642 1.666-5.146 2.147-7.513 1.441-2.371-0.702-4.534-2.602-6.487-5.7v0c-1.858-2.947-2.592-5.641-2.204-8.083 0.384-2.439 1.857-4.466 4.421-6.083v0c2.625-1.655 5.094-2.105 7.404-1.35 2.305 0.759 4.453 2.716 6.442 5.871v0zM205.29 250.368l9.634-6.075c-1.346-1.773-2.688-2.84-4.026-3.201-1.336-0.37-2.747-0.087-4.235 0.851v0c-1.437 0.906-2.274 2.107-2.511 3.603-0.232 1.493 0.148 3.1 1.139 4.822z" fill="white"></path><path d="M210.899 226.831l2.729-2.201 18.155 22.515-2.73 2.201z" fill="white"></path><path d="M241.258 222.235v0c2.673 2.543 4.106 5.023 4.298 7.44 0.187 2.422-0.786 4.754-2.921 6.998v0c-2.121 2.229-4.404 3.266-6.848 3.11-2.444-0.156-4.95-1.455-7.517-3.897v0c-2.639-2.511-4.074-4.965-4.303-7.363-0.229-2.397 0.74-4.734 2.907-7.011v0c2.222-2.335 4.498-3.443 6.828-3.322 2.335 0.126 4.854 1.474 7.556 4.045zM238.724 224.899v0c-2.109-2.006-3.941-3.153-5.499-3.439-1.552-0.282-3.031 0.316-4.435 1.792v0c-1.414 1.486-1.95 3.026-1.61 4.619 0.346 1.588 1.556 3.37 3.631 5.344v0c2.012 1.914 3.835 3.028 5.468 3.341 1.638 0.308 3.122-0.238 4.454-1.638v0c1.451-1.525 1.999-3.081 1.643-4.669-0.355-1.588-1.573-3.372-3.652-5.35z" fill="white"></path><path d="M253.488 203.714v0c3.06 2.038 4.997 4.104 5.81 6.199 0.814 2.094 0.504 4.217-0.928 6.368v0c-1.802 2.705-4.03 3.846-6.685 3.422v0l-0.049 0.075c0.103 0.013 1.037 0.606 2.799 1.78v0l6.86 4.569-1.944 2.919-20.862-13.895c-0.898-0.598-1.652-1.088-2.262-1.471-0.61-0.382-1.071-0.657-1.383-0.825v0l1.877-2.818c0.052 0.018 0.275 0.139 0.671 0.362 0.395 0.223 0.819 0.47 1.272 0.739 0.453 0.27 0.782 0.473 0.987 0.61v0l0.039-0.059c-0.734-1.241-1.066-2.455-0.997-3.64 0.064-1.19 0.561-2.483 1.492-3.88v0c1.44-2.162 3.24-3.296 5.399-3.402 2.165-0.103 4.8 0.88 7.904 2.947zM251.516 206.819v0c-2.445-1.628-4.413-2.463-5.906-2.505-1.487-0.038-2.711 0.663-3.67 2.104v0c-1.067 1.602-1.303 3.158-0.707 4.667 0.592 1.514 2.127 3.097 4.604 4.747v0c2.3 1.532 4.242 2.293 5.826 2.283 1.589-0.006 2.933-0.835 4.033-2.487v0c0.967-1.452 1.138-2.867 0.511-4.245-0.621-1.374-2.185-2.896-4.691-4.564z" fill="white"></path><path d="M262.96 183.729l-5.975 13.82c2.219 0.959 4.13 1.238 5.734 0.835 1.601-0.396 2.783-1.478 3.547-3.244v0c0.603-1.394 0.805-2.634 0.607-3.721-0.2-1.081-0.664-1.956-1.39-2.626v0l2.028-2.475c2.551 2.474 2.94 5.763 1.167 9.864v0c-1.24 2.867-3.035 4.678-5.386 5.433-2.353 0.76-5.211 0.414-8.573-1.04v0c-3.197-1.382-5.325-3.191-6.383-5.427-1.061-2.229-0.99-4.734 0.213-7.516v0c1.232-2.849 3.014-4.614 5.348-5.296 2.331-0.676 5.208-0.273 8.632 1.207v0zM254.525 196.442l4.52-10.454c-2.112-0.703-3.823-0.826-5.131-0.368-1.312 0.449-2.316 1.48-3.014 3.094v0c-0.674 1.559-0.687 3.023-0.038 4.392 0.652 1.363 1.872 2.475 3.663 3.336z" fill="white"></path><path d="M263.908 175.546v0l10.602 2.892-0.922 3.383-15.605-4.256c-0.72-0.196-1.474-0.392-2.263-0.587-0.796-0.196-1.632-0.393-2.511-0.591v0l0.873-3.2c0.585 0.132 1.112 0.252 1.58 0.358 0.468 0.107 0.877 0.201 1.228 0.283 0.344 0.08 0.636 0.149 0.875 0.208 0.233 0.057 0.404 0.1 0.513 0.13v0l0.019-0.068c-1.124-0.714-1.962-1.388-2.514-2.021v0c-0.511-0.609-0.811-1.229-0.901-1.861-0.09-0.632-0.022-1.363 0.205-2.192v0c0.126-0.463 0.312-0.902 0.556-1.319v0l3.104 0.847c-0.238 0.391-0.463 0.975-0.675 1.752v0c-0.384 1.407-0.073 2.645 0.934 3.714 1.006 1.068 2.641 1.911 4.902 2.528z" fill="white"></path></g></svg></g></svg></g></svg></g></svg></g><defs><mask></mask></defs></svg><rect width="279.72" height="279.72" fill="black" stroke="none" visibility="hidden"></rect></g></mask><linearGradient x1="0" x2="1" y1="0.5" y2="0.5" id="4da42f68-999e-4622-84d3-60553b2d6091"><stop stop-color="#fff72e" offset="0"></stop><stop stop-color="#deae29" offset="1"></stop></linearGradient><rect width="279.72" height="279.72" fill="url(#4da42f68-999e-4622-84d3-60553b2d6091)" mask="url(#da8032b4-2040-497e-9d18-fd98650cf5ab)" data-fill-palette-color="primary"></rect><mask id="2d2b934b-cf31-44f0-a933-532c89633c7f"><g id="SvgjsG4057"><svg viewBox="0 0 279.72 279.72" height="279.72" width="279.72"><g><svg viewBox="0 0 279.72 279.72" height="279.72" width="279.72"><g><svg viewBox="0 0 279.72 279.72" height="279.72" width="279.72"><g id="SvgjsG4056"><svg viewBox="0 0 279.72 279.72" height="279.72" width="279.72" id="SvgjsSvg4055"><g><svg viewBox="0 0 279.72 279.72" height="279.72" width="279.72"><g transform="matrix(1,0,0,1,57.446704652707865,57.446704652707865)"><svg viewBox="0 0 164.8265906945843 164.8265906945843" height="164.8265906945843" width="164.8265906945843"><g id="SvgjsG4054"><circle r="82" cx="82.41329534729215" cy="82.41329534729215" fill="white"></circle><svg xmlns="http://www.w3.org/2000/svg" xmlns:xlink="http://www.w3.org/1999/xlink" version="1.1" x="24.72398860418764" y="24.723988604187646" viewBox="2.3 12.100000000000001 95.40000000000002 75.69999999999999" enable-background="new 0 0 100 100" xml:space="preserve" height="115.378613486209" width="115.378613486209" class="icon-jxe-0" data-fill-palette-color="quaternary" id="SvgjsSvg4053"><path d="M84.7 25.7C84.2 23.5 83.4 21.3 82.3 19.2 85.5 20.4 88.1 22.7 89.7 25.7zM72.2 19.2C69 20.4 66.3 22.7 64.6 25.7H69.6C70.2 23.4 71.1 21.2 72.2 19.2M76.1 18.3C74.6 20.6 73.4 23.1 72.7 25.7H81.7C81 23.1 79.9 20.6 78.4 18.3 78 18.3 77.6 18.2 77.1 18.2 76.8 18.3 76.5 18.3 76.1 18.3M15.4 66.2V72H77.2V57C79.8 57 82.4 56.6 84.9 55.8V71.6C84.9 72.6 85.2 73.6 85.9 74.3L89.8 79.1C90.1 79.5 90.3 79.9 90.3 80.4V82.6C90.3 85.5 88 87.8 85.1 87.8H7.5C4.6 87.8 2.3 85.5 2.3 82.6V80.4C2.3 79.9 2.5 79.5 2.8 79.1L6.8 74.2C7.4 73.4 7.8 72.5 7.8 71.5V32.6C7.8 28.4 11.2 24.9 15.5 24.9H54C53.2 27.4 52.8 30 52.8 32.6H15.4zM38 80.3C38 81.8 39.2 83 40.7 83H52C53.5 83 54.7 81.8 54.7 80.3V79.7H38zM68.8 32.8C68.8 31.4 68.9 30 69.1 28.6H63.4C63 29.9 62.8 31.2 62.8 32.6S63 35.3 63.4 36.5H69C68.9 35.3 68.8 34 68.8 32.8M64.6 39.5C66.2 42.4 68.8 44.7 71.9 46 70.8 43.9 70.1 41.8 69.5 39.5zM71.7 32.8C71.7 34.1 71.8 35.3 72 36.6H82.3C82.5 35.2 82.6 33.9 82.6 32.5 82.6 31.2 82.5 30 82.3 28.7H72.1C71.8 30 71.7 31.4 71.7 32.8M91.7 18.1C99.7 26.1 99.7 39.1 91.7 47 85 53.7 74.7 54.8 66.9 50.2 63.8 52.5 60.5 52.9 58.2 52.6 57.4 52.5 57.3 51.4 58 51.1 60.1 50.1 61.4 48 62.2 46.3L62 46.1C54.9 38.1 55.2 25.8 62.9 18.1 70.7 10.1 83.7 10.1 91.7 18.1M89.4 20.4C86.1 17.1 81.8 15.3 77.2 15.3S68.3 17.1 65 20.4C61.8 23.7 60 28 60 32.6S61.8 41.5 65.1 44.8 72.7 49.9 77.3 49.9 86.2 48.1 89.5 44.8 94.6 37.2 94.6 32.6C94.5 28 92.7 23.7 89.4 20.4M75.9 46.9C76.3 46.9 76.8 47 77.2 47H78.2C79.7 44.7 80.9 42.2 81.6 39.6H72.5C73.3 42.1 74.4 44.6 75.9 46.9M85.5 32.4C85.5 33.8 85.4 35.2 85.2 36.5H91C91.4 35.2 91.6 33.9 91.6 32.6 91.6 31.2 91.4 29.9 91 28.6H85.3C85.4 29.9 85.5 31.1 85.5 32.4M82.1 46.1C85.4 44.9 88.1 42.5 89.8 39.5H84.7C84.1 41.8 83.2 44 82.1 46.1" fill="black"></path></svg></g></svg></g><g id="SvgjsG4052"></g><g id="SvgjsG4051"></g></svg></g></svg></g></svg></g></svg></g><defs><mask></mask></defs><mask><g id="SvgjsG4050"><svg viewBox="0 0 279.72 279.72" height="279.72" width="279.72"><g><svg viewBox="0 0 279.72 279.72" height="279.72" width="279.72"><g><svg viewBox="0 0 279.72 279.72" height="279.72" width="279.72"><g id="SvgjsG4049"><svg viewBox="0 0 279.72 279.72" height="279.72" width="279.72" id="SvgjsSvg4048"><g><svg viewBox="0 0 279.72 279.72" height="279.72" width="279.72"><g transform="matrix(1,0,0,1,57.446704652707865,57.446704652707865)"><svg viewBox="0 0 164.8265906945843 164.8265906945843" height="164.8265906945843" width="164.8265906945843"><g id="SvgjsG4047"><circle r="82" cx="82.41329534729215" cy="82.41329534729215" fill="black"></circle><svg xmlns="http://www.w3.org/2000/svg" xmlns:xlink="http://www.w3.org/1999/xlink" version="1.1" x="24.72398860418764" y="24.723988604187646" viewBox="2.3 12.100000000000001 95.40000000000002 75.69999999999999" enable-background="new 0 0 100 100" xml:space="preserve" height="115.378613486209" width="115.378613486209" class="icon-jxe-0" data-fill-palette-color="quaternary" id="SvgjsSvg4046"><path d="M84.7 25.7C84.2 23.5 83.4 21.3 82.3 19.2 85.5 20.4 88.1 22.7 89.7 25.7zM72.2 19.2C69 20.4 66.3 22.7 64.6 25.7H69.6C70.2 23.4 71.1 21.2 72.2 19.2M76.1 18.3C74.6 20.6 73.4 23.1 72.7 25.7H81.7C81 23.1 79.9 20.6 78.4 18.3 78 18.3 77.6 18.2 77.1 18.2 76.8 18.3 76.5 18.3 76.1 18.3M15.4 66.2V72H77.2V57C79.8 57 82.4 56.6 84.9 55.8V71.6C84.9 72.6 85.2 73.6 85.9 74.3L89.8 79.1C90.1 79.5 90.3 79.9 90.3 80.4V82.6C90.3 85.5 88 87.8 85.1 87.8H7.5C4.6 87.8 2.3 85.5 2.3 82.6V80.4C2.3 79.9 2.5 79.5 2.8 79.1L6.8 74.2C7.4 73.4 7.8 72.5 7.8 71.5V32.6C7.8 28.4 11.2 24.9 15.5 24.9H54C53.2 27.4 52.8 30 52.8 32.6H15.4zM38 80.3C38 81.8 39.2 83 40.7 83H52C53.5 83 54.7 81.8 54.7 80.3V79.7H38zM68.8 32.8C68.8 31.4 68.9 30 69.1 28.6H63.4C63 29.9 62.8 31.2 62.8 32.6S63 35.3 63.4 36.5H69C68.9 35.3 68.8 34 68.8 32.8M64.6 39.5C66.2 42.4 68.8 44.7 71.9 46 70.8 43.9 70.1 41.8 69.5 39.5zM71.7 32.8C71.7 34.1 71.8 35.3 72 36.6H82.3C82.5 35.2 82.6 33.9 82.6 32.5 82.6 31.2 82.5 30 82.3 28.7H72.1C71.8 30 71.7 31.4 71.7 32.8M91.7 18.1C99.7 26.1 99.7 39.1 91.7 47 85 53.7 74.7 54.8 66.9 50.2 63.8 52.5 60.5 52.9 58.2 52.6 57.4 52.5 57.3 51.4 58 51.1 60.1 50.1 61.4 48 62.2 46.3L62 46.1C54.9 38.1 55.2 25.8 62.9 18.1 70.7 10.1 83.7 10.1 91.7 18.1M89.4 20.4C86.1 17.1 81.8 15.3 77.2 15.3S68.3 17.1 65 20.4C61.8 23.7 60 28 60 32.6S61.8 41.5 65.1 44.8 72.7 49.9 77.3 49.9 86.2 48.1 89.5 44.8 94.6 37.2 94.6 32.6C94.5 28 92.7 23.7 89.4 20.4M75.9 46.9C76.3 46.9 76.8 47 77.2 47H78.2C79.7 44.7 80.9 42.2 81.6 39.6H72.5C73.3 42.1 74.4 44.6 75.9 46.9M85.5 32.4C85.5 33.8 85.4 35.2 85.2 36.5H91C91.4 35.2 91.6 33.9 91.6 32.6 91.6 31.2 91.4 29.9 91 28.6H85.3C85.4 29.9 85.5 31.1 85.5 32.4M82.1 46.1C85.4 44.9 88.1 42.5 89.8 39.5H84.7C84.1 41.8 83.2 44 82.1 46.1" fill="black"></path></svg></g></svg></g><g id="SvgjsG4045"><path d="M21.301 98.715v0l0.274 0.182 14.727-5.978 0.348 0.124-0.35 4.094c-1.448 0.475-2.971 0.984-4.571 1.527-1.599 0.542-3.129 1.059-4.589 1.551-1.465 0.484-2.73 0.922-3.795 1.314-1.063 0.386-1.781 0.668-2.156 0.846v0c-0.308 0.152-0.512 0.366-0.61 0.642v0c1.814 0.644 3.64 1.285 5.477 1.923 1.831 0.636 3.674 1.226 5.531 1.772v0l-0.021 3.523-0.489 0.304c-2.693-1.133-5.408-2.206-8.144-3.22-2.736-1.013-5.478-2.008-8.228-2.984v0c-0.151-0.053-0.47-0.16-0.958-0.318-0.481-0.157-1.054-0.346-1.717-0.567-0.657-0.219-1.336-0.446-2.038-0.681-0.695-0.233-1.309-0.443-1.842-0.633v0c-0.402-0.143-0.807-0.036-1.217 0.321-0.407 0.35-0.749 0.738-1.027 1.162-0.28 0.431-0.442 0.709-0.487 0.834v0l-0.636-0.268-0.146-0.306 3.653-10.291c0.824-2.322 1.927-4.026 3.309-5.112 1.376-1.088 2.948-1.318 4.718-0.689v0c1.739 0.617 3.034 1.487 3.887 2.609 0.85 1.129 1.334 2.403 1.452 3.823 0.124 1.422 0.006 2.921-0.355 4.496zM18.372 102.276v0c0.1 0.036 0.229 0.053 0.385 0.052 0.156-0.001 0.256-0.065 0.301-0.19v0c0.492-1.387 0.747-2.781 0.763-4.182 0.017-1.401-0.31-2.661-0.979-3.782-0.672-1.115-1.751-1.936-3.239-2.464v0c-1.211-0.43-2.251-0.438-3.118-0.025-0.876 0.417-1.598 1.069-2.168 1.955-0.571 0.893-1.032 1.832-1.381 2.817v0l-0.535 1.506c-0.1 0.282 0.172 0.552 0.815 0.809v0c0.474 0.197 1.086 0.435 1.835 0.715 0.755 0.282 1.542 0.583 2.362 0.902 0.826 0.321 1.61 0.621 2.353 0.899 0.736 0.275 1.344 0.505 1.822 0.689 0.473 0.182 0.734 0.282 0.784 0.299z" fill="black"></path><path d="M39.299 46.326v0c0.48 0.472 0.716 1.02 0.708 1.643-0.013 0.628-0.234 1.178-0.664 1.651v0c-0.435 0.478-0.972 0.732-1.612 0.763-0.64 0.03-1.199-0.172-1.677-0.606v0c-0.513-0.466-0.731-1.043-0.655-1.73 0.081-0.683 0.32-1.243 0.719-1.682v0c0.466-0.513 0.999-0.752 1.6-0.72 0.601 0.042 1.128 0.269 1.581 0.681zM45.849 53.038v0l6.017 5.916c1.089 0.99 2.022 1.672 2.799 2.045 0.777 0.383 1.399 0.318 1.865-0.195v0c0.524-0.577 0.846-1.198 0.965-1.864 0.119-0.675 0.18-1.371 0.184-2.088v0l0.645-0.115 0.325 0.295c0.134 0.734 0.221 1.524 0.262 2.371 0.041 0.856-0.02 1.67-0.181 2.442-0.166 0.776-0.5 1.441-1.001 1.992v0c-0.381 0.419-0.811 0.743-1.291 0.974-0.479 0.23-1.059 0.239-1.738 0.026-0.67-0.213-1.491-0.761-2.462-1.643v0l-6.403-6.146c-0.774-0.703-1.454-1.187-2.042-1.451-0.593-0.269-1.068-0.206-1.427 0.188v0c-0.291 0.32-0.539 0.801-0.745 1.443-0.205 0.651-0.36 1.252-0.465 1.804v0l-0.889-0.106c0.077-1.154 0.226-2.328 0.447-3.522 0.216-1.198 0.585-2.084 1.104-2.656v0c0.614-0.675 1.275-0.942 1.985-0.801 0.709 0.131 1.391 0.495 2.046 1.091z" fill="black"></path><path d="M88.374 22.474v0l-1.277 2.33-0.555-0.027c-0.453-0.755-0.99-1.313-1.613-1.672-0.619-0.354-1.334-0.32-2.143 0.101v0c-0.833 0.433-1.386 1.066-1.659 1.898-0.276 0.841-0.198 1.676 0.232 2.503v0c0.372 0.715 1.018 1.156 1.938 1.324 0.917 0.176 2.173 0.195 3.768 0.056v0c1.687-0.119 3.04-0.023 4.057 0.289 1.027 0.314 1.755 0.885 2.186 1.712v0c0.63 1.211 0.819 2.404 0.566 3.579-0.247 1.172-0.779 2.233-1.598 3.185-0.819 0.951-1.751 1.699-2.798 2.243v0c-1.07 0.556-2.17 0.858-3.301 0.906-1.137 0.051-2.295-0.327-3.472-1.134v0l0.428-3.443 0.523-0.227c0.639 1.056 1.551 1.799 2.735 2.226 1.189 0.425 2.342 0.347 3.459-0.233v0c0.756-0.393 1.311-1.023 1.664-1.89 0.35-0.858 0.333-1.656-0.052-2.394v0c-0.32-0.615-0.769-1.045-1.347-1.293-0.576-0.241-1.212-0.375-1.91-0.403-0.695-0.037-1.39-0.024-2.086 0.038v0c-0.893 0.074-1.789 0.089-2.69 0.047-0.897-0.051-1.709-0.248-2.435-0.591-0.724-0.352-1.288-0.918-1.694-1.698v0c-0.556-1.07-0.722-2.147-0.498-3.232 0.221-1.076 0.702-2.065 1.441-2.968 0.742-0.897 1.598-1.597 2.567-2.1v0c0.62-0.323 1.281-0.546 1.982-0.671 0.707-0.127 1.379-0.083 2.018 0.133 0.635 0.21 1.156 0.679 1.564 1.406z" fill="black"></path><path d="M143.13 23.94v0c0.778-0.049 1.466-0.306 2.064-0.77 0.604-0.472 1.082-0.892 1.432-1.262v0l0.544 0.366 0.027 0.439c-0.818 0.992-1.73 1.931-2.735 2.815-1.006 0.877-2.11 1.354-3.314 1.43v0c-0.931 0.059-1.631-0.311-2.102-1.109-0.464-0.805-0.728-1.703-0.79-2.693v0c-0.045-0.718-0.084-1.54-0.115-2.466-0.032-0.926-0.06-1.808-0.087-2.647-0.027-0.846-0.055-1.508-0.085-1.987v0c-0.064-1.017-0.202-1.939-0.414-2.766-0.213-0.834-0.58-1.482-1.103-1.943-0.53-0.467-1.287-0.67-2.271-0.608v0c-1.097 0.069-2.111 0.396-3.041 0.982-0.931 0.579-1.765 1.172-2.501 1.779v0c0.138 2.194 0.263 4.395 0.376 6.604 0.112 2.202 0.236 4.386 0.372 6.553v0l-2.826 1.059-0.275-0.383c-0.027-2.654-0.07-5.308-0.13-7.96-0.06-2.652-0.16-5.302-0.3-7.95v0c-0.128-2.027-0.239-3.796-0.334-5.304-0.095-1.509-0.434-2.609-1.019-3.3v0c-0.201-0.228-0.64-0.407-1.315-0.537-0.682-0.131-1.293-0.232-1.831-0.306v0l-0.046-0.727 0.19-0.173 6.289-1.076 0.256 0.264c0.028 1.713 0.095 3.528 0.203 5.443 0.107 1.909 0.218 3.784 0.334 5.625v0l0.34 0.309c1.131-0.799 2.357-1.566 3.679-2.304 1.321-0.744 2.716-1.162 4.185-1.254v0c0.292-0.018 0.714 0.049 1.264 0.2 0.543 0.153 1.013 0.407 1.409 0.763v0c0.653 0.519 1.027 1.427 1.123 2.722 0.095 1.295 0.193 2.744 0.293 4.346v0l0.186 2.961c0.026 0.405 0.049 0.888 0.071 1.447 0.022 0.566 0.09 1.112 0.204 1.639 0.113 0.527 0.308 0.965 0.583 1.315 0.275 0.343 0.679 0.498 1.21 0.464z" fill="black"></path><path d="M191.235 16.822v0c0.604 0.228 1.232 0.594 1.882 1.096 0.654 0.511 1.2 1.091 1.638 1.741v0l2.432-0.416 0.117 0.258c-1.181 2.672-2.288 5.373-3.32 8.101v0c-0.219 0.579-0.499 1.264-0.84 2.054-0.339 0.783-0.626 1.561-0.861 2.333-0.233 0.766-0.333 1.444-0.299 2.034 0.042 0.586 0.312 0.973 0.81 1.161v0c0.274 0.104 0.679 0.171 1.216 0.203 0.53 0.029 1.023 0.045 1.478 0.047v0l-0.078 0.996c-0.611 0.111-1.269 0.229-1.971 0.354-0.707 0.117-1.379 0.191-2.017 0.221-0.644 0.027-1.165-0.035-1.564-0.186v0c-0.704-0.266-1.125-0.668-1.264-1.204-0.139-0.537-0.152-1.143-0.038-1.82v0l-0.504-0.361c-1.154 0.247-2.339 0.422-3.553 0.526-1.212 0.097-2.366-0.061-3.462-0.476v0c-1.053-0.398-1.846-0.955-2.381-1.67-0.528-0.712-0.869-1.514-1.024-2.405-0.148-0.889-0.153-1.799-0.014-2.73 0.141-0.937 0.372-1.832 0.694-2.685v0c0.502-1.327 1.156-2.55 1.964-3.668 0.81-1.125 1.765-2.06 2.866-2.805 1.094-0.747 2.316-1.2 3.665-1.359 1.351-0.165 2.828 0.054 4.428 0.66zM184.599 32v0c0.723 0.273 1.496 0.366 2.319 0.279 0.82-0.096 1.587-0.251 2.302-0.465v0l3.264-8.635c0.191-0.505 0.346-0.991 0.466-1.458 0.12-0.467 0.093-0.923-0.081-1.366v0c-0.198-0.474-0.477-0.914-0.836-1.32-0.359-0.406-0.778-0.7-1.259-0.881v0c-1.377-0.521-2.747-0.494-4.11 0.08v0c-0.574 0.239-1.283 0.814-2.127 1.727-0.841 0.907-1.65 2.303-2.427 4.187v0c-0.319 0.769-0.55 1.576-0.691 2.42-0.15 0.848-0.135 1.676 0.044 2.484v0c0.161 0.78 0.549 1.4 1.165 1.861 0.61 0.458 1.267 0.821 1.971 1.087z" fill="black"></path><path d="M235.466 34.863v0l0.601-0.6 0.311 0.029 5.302 4.291-0.028 0.368c-1.268 1.04-2.516 2.099-3.746 3.176-1.235 1.082-2.439 2.209-3.613 3.381v0l-0.933 0.932 0.106 0.403c1.328 0.189 2.616 0.494 3.863 0.914 1.252 0.415 2.359 1.104 3.319 2.065v0c0.889 0.891 1.414 1.845 1.574 2.862 0.164 1.013 0.05 2.016-0.342 3.009-0.387 0.989-0.979 1.881-1.775 2.677v0c-0.627 0.626-1.289 1.212-1.986 1.757-0.702 0.551-1.461 1.026-2.276 1.426v0c-1.329 0.677-2.784 1.025-4.366 1.042-1.592 0.018-3.136-0.257-4.634-0.823-1.493-0.571-2.778-1.396-3.855-2.475v0c-0.475-0.476-0.878-1.067-1.207-1.774-0.334-0.711-0.399-1.517-0.196-2.416 0.198-0.895 0.818-1.862 1.86-2.902v0l13.523-13.505c0.344-0.344 0.518-0.626 0.524-0.847 0.01-0.217-0.15-0.537-0.48-0.961-0.329-0.424-0.845-1.1-1.546-2.029zM231.996 48.029v0c-0.495 0.456-1.058 0.972-1.69 1.546-0.636 0.579-1.23 1.144-1.781 1.694v0c-1.06 1.059-1.942 2.061-2.644 3.008-0.698 0.941-1.075 1.841-1.133 2.697-0.057 0.848 0.331 1.689 1.164 2.523v0c1.002 1.004 2.073 1.549 3.213 1.634 1.149 0.086 2.272-0.147 3.371-0.697 1.098-0.541 2.083-1.247 2.954-2.117v0c1.042-1.04 1.779-1.96 2.213-2.761 0.439-0.796 0.705-1.448 0.8-1.956v0c0.095-0.471 0.102-1.01 0.022-1.618-0.07-0.608-0.378-1.185-0.924-1.731v0c-0.758-0.759-1.617-1.303-2.578-1.634-0.951-0.33-1.947-0.526-2.987-0.588z" fill="black"></path><path d="M256.434 109.322v0c0.266 0.732 0.706 1.32 1.321 1.763 0.623 0.447 1.161 0.787 1.614 1.019v0l-0.199 0.625-0.413 0.15c-1.183-0.506-2.34-1.116-3.471-1.832-1.125-0.718-1.894-1.643-2.306-2.777v0c-0.318-0.876-0.161-1.653 0.472-2.329 0.642-0.672 1.429-1.178 2.362-1.517v0c0.676-0.246 1.454-0.514 2.333-0.805 0.879-0.291 1.718-0.567 2.515-0.828 0.804-0.264 1.432-0.478 1.883-0.642v0c0.958-0.348 1.804-0.74 2.538-1.177 0.74-0.439 1.258-0.974 1.553-1.605 0.299-0.64 0.28-1.423-0.057-2.35v0c-0.375-1.033-0.975-1.913-1.799-2.642-0.818-0.73-1.622-1.363-2.411-1.898v0c-2.066 0.75-4.142 1.491-6.23 2.221-2.081 0.728-4.142 1.462-6.183 2.203v0l-1.812-2.414 0.29-0.371c2.539-0.774 5.073-1.563 7.601-2.368 2.528-0.805 5.042-1.647 7.543-2.527v0c1.909-0.694 3.575-1.298 4.995-1.815 1.421-0.516 2.381-1.152 2.879-1.906v0c0.162-0.257 0.21-0.728 0.145-1.414-0.067-0.691-0.141-1.306-0.223-1.843v0l0.686-0.249 0.218 0.134 2.805 5.73-0.181 0.321c-1.636 0.509-3.358 1.085-5.166 1.728-1.801 0.64-3.569 1.275-5.302 1.905v0l-0.201 0.413c1.085 0.86 2.167 1.82 3.247 2.881 1.086 1.058 1.88 2.279 2.382 3.662v0c0.1 0.275 0.155 0.699 0.164 1.27 0.007 0.564-0.105 1.087-0.334 1.567v0c-0.314 0.773-1.08 1.388-2.296 1.843-1.216 0.456-2.579 0.958-4.088 1.506v0l-2.788 1.014c-0.382 0.139-0.838 0.297-1.369 0.475-0.537 0.181-1.042 0.4-1.515 0.657-0.474 0.257-0.839 0.567-1.097 0.93-0.252 0.361-0.286 0.791-0.105 1.292z" fill="black"></path><path d="M13.863 143.067c0-1.738 1.409-3.147 3.148-3.148 1.738 0 3.147 1.409 3.147 3.148 0 1.738-1.409 3.147-3.147 3.147-1.738 0-3.147-1.409-3.148-3.147z" fill="black"></path><path d="M265.377 143.067c0-1.738 1.409-3.147 3.147-3.148 1.738 0 3.147 1.409 3.148 3.148 0 1.738-1.409 3.147-3.148 3.147-1.738 0-3.147-1.409-3.147-3.147z" fill="black"></path></g><g id="SvgjsG4044"><path d="M69.523 235.823v0l-14.435 10.735-3.505-2.736 10.526-26.623 3.055 2.385-6.849 16.782c-0.436 1.045-0.895 2.094-1.377 3.145-0.483 1.051-0.981 2.107-1.496 3.166v0c0.379-0.312 0.879-0.725 1.499-1.238 0.625-0.509 1.266-1.027 1.922-1.554 0.656-0.527 1.22-0.962 1.69-1.304v0l14.889-10.975 2.812 2.194-6.752 16.414c-0.568 1.323-1.103 2.54-1.607 3.65-0.508 1.116-0.975 2.116-1.403 2.999v0c0.624-0.485 1.294-1.014 2.011-1.587 0.713-0.567 1.371-1.08 1.974-1.538 0.602-0.468 1.029-0.798 1.28-0.991v0l14.743-10.95 3.064 2.391-23.277 16.672-3.504-2.736 6.983-16.677c0.215-0.525 0.533-1.24 0.952-2.146 0.419-0.915 0.947-2.02 1.585-3.313v0c-0.517 0.467-1.094 0.958-1.733 1.474-0.644 0.511-1.241 0.979-1.792 1.402-0.554 0.429-0.973 0.749-1.255 0.959z" fill="black"></path><path d="M98.685 262.565l-13.601-6.457c-1.037 2.184-1.382 4.084-1.036 5.701 0.34 1.614 1.379 2.833 3.118 3.659v0c1.372 0.651 2.604 0.897 3.697 0.738 1.087-0.162 1.978-0.595 2.673-1.297v0l2.403 2.114c-2.562 2.463-5.862 2.735-9.9 0.819v0c-2.822-1.34-4.568-3.197-5.239-5.573-0.677-2.378-0.23-5.222 1.34-8.532v0c1.494-3.147 3.376-5.21 5.648-6.188 2.265-0.982 4.766-0.823 7.504 0.477v0c2.804 1.331 4.505 3.175 5.104 5.531 0.593 2.353 0.09 5.215-1.509 8.584v0zM86.277 253.689l10.289 4.884c0.777-2.086 0.959-3.791 0.548-5.115-0.402-1.326-1.398-2.367-2.986-3.12v0c-1.534-0.728-2.997-0.792-4.388-0.192-1.385 0.603-2.539 1.784-3.463 3.543z" fill="black"></path><path d="M120.512 267.736v0c-0.979 3.544-2.336 6.029-4.071 7.457-1.735 1.428-3.848 1.797-6.339 1.109v0c-1.541-0.426-2.744-1.059-3.611-1.899-0.866-0.841-1.449-1.969-1.749-3.386v0l-0.029-0.008c-0.069 0.25-0.182 0.61-0.339 1.078-0.159 0.474-0.307 0.91-0.444 1.307-0.137 0.397-0.231 0.637-0.282 0.72v0l-3.265-0.902c0.126-0.331 0.295-0.841 0.506-1.529 0.211-0.688 0.464-1.565 0.758-2.63v0l6.546-23.689 3.38 0.934-2.195 7.944c-0.11 0.398-0.239 0.839-0.387 1.324-0.139 0.48-0.297 0.989-0.474 1.527v0l0.068 0.019c0.987-1.123 2.076-1.824 3.265-2.103 1.19-0.279 2.548-0.208 4.077 0.214v0c2.568 0.71 4.217 2.095 4.946 4.155 0.73 2.06 0.609 4.846-0.361 8.358zM116.939 266.863v0c0.784-2.838 0.971-4.976 0.561-6.417-0.412-1.434-1.466-2.385-3.161-2.853v0c-1.9-0.525-3.467-0.257-4.7 0.805-1.233 1.062-2.241 3.008-3.024 5.84v0c-0.736 2.664-0.854 4.753-0.353 6.266 0.503 1.507 1.71 2.525 3.624 3.054v0c1.708 0.472 3.115 0.18 4.222-0.875 1.105-1.049 2.049-2.989 2.831-5.82z" fill="black"></path><path d="M160.032 265.287v0c0.051 2.897-0.464 5.401-1.546 7.512-1.088 2.118-2.628 3.757-4.619 4.918-1.984 1.168-4.302 1.775-6.952 1.821v0l-10.269 0.182-0.486-27.46 9.08-0.16c4.648-0.082 8.258 1.02 10.83 3.305 2.565 2.286 3.886 5.58 3.962 9.882zM156.296 265.353v0c-0.06-3.403-1.038-5.98-2.935-7.731-1.896-1.752-4.612-2.596-8.148-2.534v0l-5.284 0.093 0.38 21.487 6.123-0.109c2.038-0.036 3.801-0.514 5.291-1.432 1.482-0.926 2.625-2.221 3.428-3.888 0.803-1.66 1.185-3.621 1.145-5.886z" fill="black"></path><path d="M182 264.253l-14.668 3.393c0.545 2.355 1.455 4.059 2.73 5.111 1.269 1.053 2.841 1.363 4.717 0.929v0c1.479-0.342 2.598-0.915 3.355-1.72 0.751-0.803 1.18-1.695 1.288-2.677v0l3.196 0.163c-0.477 3.522-2.893 5.786-7.247 6.794v0c-3.043 0.704-5.566 0.334-7.568-1.11-2.009-1.443-3.426-3.948-4.251-7.517v0c-0.785-3.394-0.592-6.18 0.578-8.358 1.164-2.177 3.223-3.607 6.176-4.29v0c3.024-0.7 5.503-0.313 7.436 1.161 1.927 1.475 3.311 4.03 4.152 7.664v0zM166.763 265.009l11.096-2.567c-0.688-2.117-1.604-3.566-2.749-4.347-1.14-0.789-2.566-0.986-4.28-0.589v0c-1.655 0.383-2.84 1.242-3.557 2.576-0.71 1.333-0.88 2.976-0.51 4.927z" fill="black"></path><path d="M194.058 246.769l3.412-1.474 1.139 22.482-3.815 1.649-15.391-16.324 3.43-1.482 9.71 10.758c0.183 0.204 0.528 0.617 1.036 1.239 0.514 0.619 1.189 1.442 2.024 2.466v0c-0.042-0.533-0.099-1.085-0.172-1.656-0.073-0.571-0.135-1.128-0.189-1.671-0.059-0.54-0.102-1.026-0.129-1.457v0z" fill="black"></path><path d="M219.431 244.641l-12.736 8.03c1.29 2.045 2.71 3.354 4.26 3.928 1.545 0.577 3.131 0.352 4.76-0.675v0c1.285-0.81 2.152-1.719 2.603-2.728 0.445-1.005 0.557-1.989 0.336-2.951v0l3.071-0.898c0.708 3.483-0.828 6.416-4.608 8.8v0c-2.642 1.666-5.146 2.147-7.513 1.441-2.371-0.702-4.534-2.602-6.487-5.7v0c-1.858-2.947-2.592-5.641-2.204-8.083 0.384-2.439 1.857-4.466 4.421-6.083v0c2.625-1.655 5.094-2.105 7.404-1.35 2.305 0.759 4.453 2.716 6.442 5.871v0zM205.29 250.368l9.634-6.075c-1.346-1.773-2.688-2.84-4.026-3.201-1.336-0.37-2.747-0.087-4.235 0.851v0c-1.437 0.906-2.274 2.107-2.511 3.603-0.232 1.493 0.148 3.1 1.139 4.822z" fill="black"></path><path d="M210.899 226.831l2.729-2.201 18.155 22.515-2.73 2.201z" fill="black"></path><path d="M241.258 222.235v0c2.673 2.543 4.106 5.023 4.298 7.44 0.187 2.422-0.786 4.754-2.921 6.998v0c-2.121 2.229-4.404 3.266-6.848 3.11-2.444-0.156-4.95-1.455-7.517-3.897v0c-2.639-2.511-4.074-4.965-4.303-7.363-0.229-2.397 0.74-4.734 2.907-7.011v0c2.222-2.335 4.498-3.443 6.828-3.322 2.335 0.126 4.854 1.474 7.556 4.045zM238.724 224.899v0c-2.109-2.006-3.941-3.153-5.499-3.439-1.552-0.282-3.031 0.316-4.435 1.792v0c-1.414 1.486-1.95 3.026-1.61 4.619 0.346 1.588 1.556 3.37 3.631 5.344v0c2.012 1.914 3.835 3.028 5.468 3.341 1.638 0.308 3.122-0.238 4.454-1.638v0c1.451-1.525 1.999-3.081 1.643-4.669-0.355-1.588-1.573-3.372-3.652-5.35z" fill="black"></path><path d="M253.488 203.714v0c3.06 2.038 4.997 4.104 5.81 6.199 0.814 2.094 0.504 4.217-0.928 6.368v0c-1.802 2.705-4.03 3.846-6.685 3.422v0l-0.049 0.075c0.103 0.013 1.037 0.606 2.799 1.78v0l6.86 4.569-1.944 2.919-20.862-13.895c-0.898-0.598-1.652-1.088-2.262-1.471-0.61-0.382-1.071-0.657-1.383-0.825v0l1.877-2.818c0.052 0.018 0.275 0.139 0.671 0.362 0.395 0.223 0.819 0.47 1.272 0.739 0.453 0.27 0.782 0.473 0.987 0.61v0l0.039-0.059c-0.734-1.241-1.066-2.455-0.997-3.64 0.064-1.19 0.561-2.483 1.492-3.88v0c1.44-2.162 3.24-3.296 5.399-3.402 2.165-0.103 4.8 0.88 7.904 2.947zM251.516 206.819v0c-2.445-1.628-4.413-2.463-5.906-2.505-1.487-0.038-2.711 0.663-3.67 2.104v0c-1.067 1.602-1.303 3.158-0.707 4.667 0.592 1.514 2.127 3.097 4.604 4.747v0c2.3 1.532 4.242 2.293 5.826 2.283 1.589-0.006 2.933-0.835 4.033-2.487v0c0.967-1.452 1.138-2.867 0.511-4.245-0.621-1.374-2.185-2.896-4.691-4.564z" fill="black"></path><path d="M262.96 183.729l-5.975 13.82c2.219 0.959 4.13 1.238 5.734 0.835 1.601-0.396 2.783-1.478 3.547-3.244v0c0.603-1.394 0.805-2.634 0.607-3.721-0.2-1.081-0.664-1.956-1.39-2.626v0l2.028-2.475c2.551 2.474 2.94 5.763 1.167 9.864v0c-1.24 2.867-3.035 4.678-5.386 5.433-2.353 0.76-5.211 0.414-8.573-1.04v0c-3.197-1.382-5.325-3.191-6.383-5.427-1.061-2.229-0.99-4.734 0.213-7.516v0c1.232-2.849 3.014-4.614 5.348-5.296 2.331-0.676 5.208-0.273 8.632 1.207v0zM254.525 196.442l4.52-10.454c-2.112-0.703-3.823-0.826-5.131-0.368-1.312 0.449-2.316 1.48-3.014 3.094v0c-0.674 1.559-0.687 3.023-0.038 4.392 0.652 1.363 1.872 2.475 3.663 3.336z" fill="black"></path><path d="M263.908 175.546v0l10.602 2.892-0.922 3.383-15.605-4.256c-0.72-0.196-1.474-0.392-2.263-0.587-0.796-0.196-1.632-0.393-2.511-0.591v0l0.873-3.2c0.585 0.132 1.112 0.252 1.58 0.358 0.468 0.107 0.877 0.201 1.228 0.283 0.344 0.08 0.636 0.149 0.875 0.208 0.233 0.057 0.404 0.1 0.513 0.13v0l0.019-0.068c-1.124-0.714-1.962-1.388-2.514-2.021v0c-0.511-0.609-0.811-1.229-0.901-1.861-0.09-0.632-0.022-1.363 0.205-2.192v0c0.126-0.463 0.312-0.902 0.556-1.319v0l3.104 0.847c-0.238 0.391-0.463 0.975-0.675 1.752v0c-0.384 1.407-0.073 2.645 0.934 3.714 1.006 1.068 2.641 1.911 4.902 2.528z" fill="black"></path></g></svg></g></svg></g></svg></g></svg></g><defs><mask></mask></defs></svg><rect width="279.72" height="279.72" fill="black" stroke="none" visibility="hidden"></rect></g></mask></svg><rect width="279.72" height="279.72" fill="black" stroke="none" visibility="hidden"></rect></g></mask><linearGradient x1="0" x2="1" y1="0.5" y2="0.5" id="f9fc460c-c0df-4e86-a229-affca7a74575"><stop stop-color="#fff72e" offset="0"></stop><stop stop-color="#deae29" offset="1"></stop></linearGradient><rect width="279.72" height="279.72" fill="url(#f9fc460c-c0df-4e86-a229-affca7a74575)" mask="url(#2d2b934b-cf31-44f0-a933-532c89633c7f)" data-fill-palette-color="accent"></rect></svg><rect width="279.72" height="279.72" fill="none" stroke="none" visibility="hidden"></rect></g></svg></g></svg>